<svg width="725" height="289" viewBox="0 0 725 289" fill="none" xmlns="http://www.w3.org/2000/svg">
<g filter="url(#filter0_d_59_1101)">
<rect x="81.2087" y="64.8438" width="569.47" height="135.246" rx="11.3927" fill="white"/>
</g>
<rect x="152.274" y="129.987" width="427.102" height="42.7132" rx="21.3566" fill="#F1F1F1"/>
<path d="M172.915 153.743V144.517H178.681V145.421H173.857V148.611H177.912V149.514H173.857V152.839H178.681V153.743H172.915ZM185.476 153.743V150.213C185.476 149.828 185.439 149.476 185.367 149.156C185.294 148.831 185.177 148.549 185.015 148.31C184.857 148.066 184.649 147.879 184.393 147.746C184.141 147.614 183.834 147.548 183.471 147.548C183.137 147.548 182.843 147.605 182.586 147.721C182.334 147.836 182.121 148.002 181.946 148.22C181.775 148.434 181.645 148.694 181.555 149.002C181.465 149.309 181.42 149.66 181.42 150.053L180.754 149.905C180.754 149.196 180.878 148.6 181.126 148.118C181.373 147.635 181.715 147.27 182.151 147.022C182.586 146.774 183.086 146.651 183.65 146.651C184.064 146.651 184.425 146.715 184.733 146.843C185.044 146.971 185.307 147.144 185.521 147.362C185.738 147.58 185.914 147.829 186.046 148.111C186.178 148.389 186.274 148.686 186.334 149.002C186.394 149.314 186.424 149.625 186.424 149.937V153.743H185.476ZM180.472 153.743V146.824H181.324V148.528H181.42V153.743H180.472ZM192.11 153.743C191.721 153.824 191.337 153.856 190.957 153.839C190.581 153.822 190.243 153.741 189.944 153.595C189.65 153.45 189.425 153.224 189.272 152.916C189.148 152.66 189.079 152.402 189.067 152.141C189.058 151.876 189.054 151.575 189.054 151.238V144.902H189.989V151.199C189.989 151.49 189.991 151.733 189.996 151.93C190.004 152.122 190.049 152.293 190.13 152.442C190.284 152.728 190.527 152.899 190.861 152.955C191.198 153.01 191.614 152.997 192.11 152.916V153.743ZM187.574 147.631V146.824H192.11V147.631H187.574ZM196.407 153.935C195.732 153.935 195.147 153.785 194.651 153.486C194.16 153.187 193.778 152.767 193.505 152.224C193.231 151.682 193.095 151.046 193.095 150.315C193.095 149.559 193.229 148.906 193.498 148.355C193.767 147.804 194.145 147.379 194.632 147.08C195.123 146.781 195.702 146.631 196.368 146.631C197.052 146.631 197.635 146.789 198.117 147.105C198.6 147.417 198.965 147.866 199.213 148.451C199.461 149.036 199.574 149.734 199.552 150.546H198.591V150.213C198.574 149.316 198.38 148.639 198.008 148.182C197.641 147.725 197.103 147.496 196.394 147.496C195.651 147.496 195.081 147.738 194.683 148.22C194.29 148.703 194.094 149.39 194.094 150.283C194.094 151.154 194.29 151.831 194.683 152.314C195.081 152.792 195.642 153.032 196.368 153.032C196.864 153.032 197.295 152.918 197.662 152.692C198.034 152.461 198.327 152.13 198.54 151.699L199.418 152.039C199.144 152.641 198.741 153.108 198.207 153.442C197.677 153.77 197.077 153.935 196.407 153.935ZM193.761 150.546V149.758H199.046V150.546H193.761ZM201.23 153.743V146.824H202.076V148.489L201.909 148.271C201.986 148.066 202.087 147.879 202.211 147.708C202.334 147.533 202.469 147.39 202.614 147.278C202.794 147.12 203.003 147.001 203.242 146.92C203.481 146.834 203.723 146.785 203.966 146.772C204.209 146.755 204.432 146.772 204.632 146.824V147.708C204.38 147.644 204.105 147.629 203.806 147.663C203.507 147.697 203.231 147.817 202.979 148.022C202.749 148.201 202.576 148.417 202.46 148.669C202.345 148.916 202.268 149.181 202.23 149.463C202.191 149.741 202.172 150.016 202.172 150.29V153.743H201.23ZM209.912 156.818L211.251 153.185L211.27 154.262L208.24 146.824H209.239L211.725 153.044H211.315L213.608 146.824H214.569L210.854 156.818H209.912ZM218.578 153.935C217.89 153.935 217.303 153.779 216.816 153.467C216.329 153.155 215.955 152.724 215.695 152.173C215.434 151.622 215.304 150.99 215.304 150.277C215.304 149.551 215.436 148.914 215.701 148.368C215.966 147.821 216.342 147.396 216.829 147.093C217.32 146.785 217.903 146.631 218.578 146.631C219.269 146.631 219.859 146.787 220.346 147.099C220.837 147.407 221.211 147.836 221.467 148.387C221.727 148.933 221.858 149.563 221.858 150.277C221.858 151.003 221.727 151.641 221.467 152.192C221.206 152.739 220.83 153.166 220.339 153.474C219.848 153.781 219.261 153.935 218.578 153.935ZM218.578 153.032C219.346 153.032 219.919 152.777 220.294 152.269C220.67 151.757 220.858 151.093 220.858 150.277C220.858 149.44 220.668 148.773 220.288 148.278C219.912 147.782 219.342 147.535 218.578 147.535C218.061 147.535 217.634 147.652 217.296 147.887C216.963 148.118 216.713 148.44 216.547 148.854C216.384 149.265 216.303 149.739 216.303 150.277C216.303 151.11 216.495 151.778 216.88 152.282C217.264 152.782 217.83 153.032 218.578 153.032ZM226.173 153.916C225.759 153.916 225.396 153.852 225.084 153.723C224.776 153.595 224.514 153.422 224.296 153.205C224.082 152.987 223.909 152.739 223.777 152.461C223.645 152.179 223.549 151.883 223.489 151.571C223.429 151.255 223.399 150.941 223.399 150.629V146.824H224.347V150.354C224.347 150.734 224.384 151.086 224.456 151.411C224.529 151.735 224.644 152.019 224.802 152.263C224.964 152.502 225.172 152.688 225.424 152.82C225.68 152.953 225.989 153.019 226.352 153.019C226.686 153.019 226.978 152.961 227.23 152.846C227.486 152.73 227.7 152.566 227.871 152.352C228.046 152.135 228.178 151.872 228.268 151.564C228.358 151.253 228.403 150.902 228.403 150.514L229.069 150.661C229.069 151.37 228.945 151.966 228.697 152.449C228.45 152.931 228.108 153.296 227.672 153.544C227.237 153.792 226.737 153.916 226.173 153.916ZM228.499 153.743V152.039H228.403V146.824H229.344V153.743H228.499ZM231.391 153.743V146.824H232.237V148.489L232.07 148.271C232.147 148.066 232.248 147.879 232.371 147.708C232.495 147.533 232.63 147.39 232.775 147.278C232.954 147.12 233.164 147.001 233.403 146.92C233.642 146.834 233.883 146.785 234.127 146.772C234.37 146.755 234.592 146.772 234.793 146.824V147.708C234.541 147.644 234.266 147.629 233.967 147.663C233.668 147.697 233.392 147.817 233.14 148.022C232.91 148.201 232.737 148.417 232.621 148.669C232.506 148.916 232.429 149.181 232.391 149.463C232.352 149.741 232.333 150.016 232.333 150.29V153.743H231.391ZM242.014 153.935C241.339 153.935 240.754 153.785 240.258 153.486C239.767 153.187 239.385 152.767 239.112 152.224C238.838 151.682 238.702 151.046 238.702 150.315C238.702 149.559 238.836 148.906 239.105 148.355C239.374 147.804 239.752 147.379 240.239 147.08C240.73 146.781 241.309 146.631 241.975 146.631C242.659 146.631 243.242 146.789 243.724 147.105C244.207 147.417 244.572 147.866 244.82 148.451C245.068 149.036 245.181 149.734 245.159 150.546H244.198V150.213C244.181 149.316 243.987 148.639 243.615 148.182C243.248 147.725 242.71 147.496 242.001 147.496C241.258 147.496 240.688 147.738 240.29 148.22C239.898 148.703 239.701 149.39 239.701 150.283C239.701 151.154 239.898 151.831 240.29 152.314C240.688 152.792 241.249 153.032 241.975 153.032C242.471 153.032 242.902 152.918 243.27 152.692C243.641 152.461 243.934 152.13 244.147 151.699L245.025 152.039C244.752 152.641 244.348 153.108 243.814 153.442C243.284 153.77 242.684 153.935 242.014 153.935ZM239.368 150.546V149.758H244.653V150.546H239.368ZM254.901 153.743L254.908 149.2C254.908 148.667 254.758 148.248 254.459 147.945C254.165 147.637 253.789 147.483 253.332 147.483C253.071 147.483 252.817 147.543 252.569 147.663C252.322 147.782 252.117 147.975 251.954 148.239C251.796 148.504 251.717 148.85 251.717 149.277L251.16 149.117C251.147 148.622 251.243 148.188 251.448 147.817C251.658 147.445 251.944 147.157 252.307 146.952C252.674 146.742 253.088 146.638 253.55 146.638C254.246 146.638 254.803 146.854 255.222 147.285C255.64 147.712 255.85 148.291 255.85 149.021L255.843 153.743H254.901ZM246.643 153.743V146.824H247.489V148.528H247.592V153.743H246.643ZM250.782 153.743L250.788 149.265C250.788 148.714 250.641 148.28 250.346 147.964C250.056 147.644 249.672 147.483 249.193 147.483C248.715 147.483 248.328 147.648 248.034 147.977C247.739 148.301 247.592 148.735 247.592 149.277L247.028 148.97C247.028 148.526 247.132 148.128 247.342 147.778C247.551 147.424 247.837 147.146 248.2 146.945C248.563 146.74 248.975 146.638 249.437 146.638C249.877 146.638 250.267 146.732 250.609 146.92C250.955 147.108 251.226 147.381 251.423 147.74C251.619 148.099 251.717 148.534 251.717 149.047L251.711 153.743H250.782ZM259.747 153.935C259.226 153.935 258.788 153.841 258.433 153.653C258.083 153.465 257.821 153.215 257.645 152.903C257.47 152.592 257.383 152.252 257.383 151.885C257.383 151.509 257.457 151.189 257.607 150.924C257.761 150.655 257.968 150.435 258.228 150.264C258.493 150.093 258.799 149.963 259.145 149.873C259.495 149.788 259.881 149.713 260.304 149.649C260.731 149.581 261.148 149.523 261.553 149.476C261.963 149.425 262.322 149.376 262.63 149.329L262.297 149.534C262.309 148.85 262.177 148.344 261.899 148.015C261.622 147.686 261.139 147.522 260.451 147.522C259.977 147.522 259.576 147.629 259.247 147.842C258.922 148.056 258.694 148.393 258.562 148.854L257.645 148.585C257.803 147.966 258.122 147.486 258.6 147.144C259.078 146.802 259.7 146.631 260.464 146.631C261.096 146.631 261.632 146.751 262.072 146.99C262.517 147.225 262.83 147.567 263.014 148.015C263.1 148.216 263.155 148.44 263.181 148.688C263.206 148.936 263.219 149.188 263.219 149.444V153.743H262.38V152.007L262.623 152.109C262.388 152.703 262.023 153.155 261.528 153.467C261.032 153.779 260.439 153.935 259.747 153.935ZM259.856 153.121C260.296 153.121 260.68 153.042 261.009 152.884C261.338 152.726 261.603 152.51 261.803 152.237C262.004 151.96 262.134 151.648 262.194 151.302C262.245 151.08 262.273 150.836 262.277 150.571C262.282 150.302 262.284 150.102 262.284 149.969L262.643 150.155C262.322 150.198 261.974 150.24 261.598 150.283C261.227 150.326 260.859 150.375 260.496 150.43C260.138 150.486 259.813 150.552 259.523 150.629C259.326 150.685 259.136 150.764 258.952 150.866C258.769 150.964 258.617 151.097 258.497 151.263C258.382 151.43 258.325 151.637 258.325 151.885C258.325 152.086 258.374 152.28 258.472 152.468C258.574 152.656 258.737 152.812 258.959 152.935C259.185 153.059 259.484 153.121 259.856 153.121ZM265.271 145.51V144.453H266.213V145.51H265.271ZM265.271 153.743V146.824H266.213V153.743H265.271ZM268.518 153.743V144.325H269.46V153.743H268.518ZM276.438 153.935C275.917 153.935 275.479 153.841 275.124 153.653C274.774 153.465 274.512 153.215 274.336 152.903C274.161 152.592 274.074 152.252 274.074 151.885C274.074 151.509 274.149 151.189 274.298 150.924C274.452 150.655 274.659 150.435 274.919 150.264C275.184 150.093 275.49 149.963 275.836 149.873C276.186 149.788 276.572 149.713 276.995 149.649C277.422 149.581 277.839 149.523 278.244 149.476C278.654 149.425 279.013 149.376 279.321 149.329L278.988 149.534C279 148.85 278.868 148.344 278.59 148.015C278.313 147.686 277.83 147.522 277.143 147.522C276.668 147.522 276.267 147.629 275.938 147.842C275.613 148.056 275.385 148.393 275.253 148.854L274.336 148.585C274.494 147.966 274.813 147.486 275.291 147.144C275.769 146.802 276.391 146.631 277.155 146.631C277.787 146.631 278.323 146.751 278.763 146.99C279.208 147.225 279.521 147.567 279.705 148.015C279.791 148.216 279.846 148.44 279.872 148.688C279.897 148.936 279.91 149.188 279.91 149.444V153.743H279.071V152.007L279.314 152.109C279.079 152.703 278.714 153.155 278.219 153.467C277.723 153.779 277.13 153.935 276.438 153.935ZM276.547 153.121C276.987 153.121 277.371 153.042 277.7 152.884C278.029 152.726 278.294 152.51 278.494 152.237C278.695 151.96 278.825 151.648 278.885 151.302C278.936 151.08 278.964 150.836 278.968 150.571C278.973 150.302 278.975 150.102 278.975 149.969L279.334 150.155C279.013 150.198 278.665 150.24 278.289 150.283C277.918 150.326 277.55 150.375 277.187 150.43C276.829 150.486 276.504 150.552 276.214 150.629C276.017 150.685 275.827 150.764 275.643 150.866C275.46 150.964 275.308 151.097 275.189 151.263C275.073 151.43 275.016 151.637 275.016 151.885C275.016 152.086 275.065 152.28 275.163 152.468C275.265 152.656 275.428 152.812 275.65 152.935C275.876 153.059 276.175 153.121 276.547 153.121ZM284.519 153.935C283.874 153.935 283.323 153.775 282.866 153.454C282.409 153.13 282.058 152.692 281.815 152.141C281.572 151.59 281.45 150.969 281.45 150.277C281.45 149.589 281.569 148.97 281.809 148.419C282.052 147.868 282.4 147.432 282.853 147.112C283.306 146.792 283.848 146.631 284.48 146.631C285.129 146.631 285.676 146.789 286.12 147.105C286.564 147.422 286.9 147.855 287.126 148.406C287.357 148.953 287.472 149.576 287.472 150.277C287.472 150.964 287.359 151.586 287.132 152.141C286.906 152.692 286.573 153.13 286.133 153.454C285.693 153.775 285.155 153.935 284.519 153.935ZM284.615 153.057C285.106 153.057 285.512 152.938 285.832 152.698C286.152 152.459 286.391 152.13 286.549 151.712C286.707 151.289 286.786 150.811 286.786 150.277C286.786 149.734 286.707 149.256 286.549 148.842C286.391 148.423 286.152 148.096 285.832 147.861C285.516 147.627 285.116 147.509 284.634 147.509C284.138 147.509 283.728 147.631 283.404 147.874C283.079 148.118 282.838 148.449 282.68 148.867C282.526 149.286 282.449 149.756 282.449 150.277C282.449 150.802 282.528 151.276 282.686 151.699C282.849 152.118 283.09 152.449 283.41 152.692C283.731 152.935 284.132 153.057 284.615 153.057ZM286.786 153.743V148.534H286.684V144.517H287.632V153.743H286.786ZM292.37 153.935C291.725 153.935 291.174 153.775 290.717 153.454C290.26 153.13 289.91 152.692 289.667 152.141C289.423 151.59 289.301 150.969 289.301 150.277C289.301 149.589 289.421 148.97 289.66 148.419C289.904 147.868 290.252 147.432 290.704 147.112C291.157 146.792 291.7 146.631 292.332 146.631C292.981 146.631 293.528 146.789 293.972 147.105C294.416 147.422 294.751 147.855 294.978 148.406C295.208 148.953 295.323 149.576 295.323 150.277C295.323 150.964 295.21 151.586 294.984 152.141C294.758 152.692 294.424 153.13 293.985 153.454C293.545 153.775 293.006 153.935 292.37 153.935ZM292.466 153.057C292.957 153.057 293.363 152.938 293.683 152.698C294.004 152.459 294.243 152.13 294.401 151.712C294.559 151.289 294.638 150.811 294.638 150.277C294.638 149.734 294.559 149.256 294.401 148.842C294.243 148.423 294.004 148.096 293.683 147.861C293.367 147.627 292.968 147.509 292.485 147.509C291.99 147.509 291.58 147.631 291.255 147.874C290.931 148.118 290.689 148.449 290.531 148.867C290.378 149.286 290.301 149.756 290.301 150.277C290.301 150.802 290.38 151.276 290.538 151.699C290.7 152.118 290.941 152.449 291.262 152.692C291.582 152.935 291.984 153.057 292.466 153.057ZM294.638 153.743V148.534H294.535V144.517H295.484V153.743H294.638ZM297.537 153.743V146.824H298.383V148.489L298.216 148.271C298.293 148.066 298.394 147.879 298.517 147.708C298.641 147.533 298.776 147.39 298.921 147.278C299.1 147.12 299.31 147.001 299.549 146.92C299.788 146.834 300.029 146.785 300.273 146.772C300.516 146.755 300.738 146.772 300.939 146.824V147.708C300.687 147.644 300.412 147.629 300.113 147.663C299.814 147.697 299.538 147.817 299.286 148.022C299.056 148.201 298.883 148.417 298.767 148.669C298.652 148.916 298.575 149.181 298.537 149.463C298.498 149.741 298.479 150.016 298.479 150.29V153.743H297.537ZM305.213 153.935C304.539 153.935 303.953 153.785 303.458 153.486C302.967 153.187 302.585 152.767 302.311 152.224C302.038 151.682 301.901 151.046 301.901 150.315C301.901 149.559 302.036 148.906 302.305 148.355C302.574 147.804 302.952 147.379 303.439 147.08C303.93 146.781 304.509 146.631 305.175 146.631C305.858 146.631 306.441 146.789 306.924 147.105C307.407 147.417 307.772 147.866 308.019 148.451C308.267 149.036 308.38 149.734 308.359 150.546H307.398V150.213C307.381 149.316 307.187 148.639 306.815 148.182C306.448 147.725 305.91 147.496 305.201 147.496C304.457 147.496 303.887 147.738 303.49 148.22C303.097 148.703 302.901 149.39 302.901 150.283C302.901 151.154 303.097 151.831 303.49 152.314C303.887 152.792 304.449 153.032 305.175 153.032C305.67 153.032 306.102 152.918 306.469 152.692C306.841 152.461 307.133 152.13 307.347 151.699L308.224 152.039C307.951 152.641 307.547 153.108 307.014 153.442C306.484 153.77 305.884 153.935 305.213 153.935ZM302.567 150.546V149.758H307.853V150.546H302.567ZM312.619 153.928C311.807 153.928 311.139 153.753 310.614 153.403C310.093 153.053 309.772 152.566 309.653 151.942L310.614 151.782C310.716 152.175 310.949 152.489 311.312 152.724C311.679 152.955 312.132 153.07 312.67 153.07C313.195 153.07 313.61 152.961 313.913 152.743C314.216 152.521 314.368 152.22 314.368 151.84C314.368 151.626 314.319 151.453 314.22 151.321C314.127 151.184 313.932 151.058 313.637 150.943C313.343 150.828 312.903 150.691 312.318 150.533C311.69 150.362 311.199 150.191 310.844 150.02C310.49 149.85 310.238 149.653 310.088 149.431C309.939 149.205 309.864 148.929 309.864 148.605C309.864 148.212 309.975 147.868 310.197 147.573C310.419 147.274 310.727 147.044 311.12 146.881C311.513 146.715 311.97 146.631 312.491 146.631C313.012 146.631 313.477 146.717 313.887 146.888C314.302 147.054 314.635 147.289 314.887 147.592C315.139 147.896 315.288 148.248 315.335 148.649L314.374 148.822C314.31 148.417 314.107 148.096 313.766 147.861C313.428 147.622 312.999 147.498 312.478 147.49C311.987 147.477 311.587 147.571 311.28 147.772C310.972 147.968 310.819 148.231 310.819 148.56C310.819 148.743 310.874 148.901 310.985 149.034C311.096 149.162 311.297 149.284 311.587 149.399C311.882 149.514 312.301 149.64 312.843 149.777C313.479 149.939 313.979 150.11 314.342 150.29C314.705 150.469 314.964 150.68 315.117 150.924C315.271 151.167 315.348 151.468 315.348 151.827C315.348 152.481 315.105 152.995 314.618 153.371C314.135 153.743 313.469 153.928 312.619 153.928ZM319.607 153.928C318.795 153.928 318.127 153.753 317.602 153.403C317.081 153.053 316.76 152.566 316.641 151.942L317.602 151.782C317.704 152.175 317.937 152.489 318.3 152.724C318.667 152.955 319.12 153.07 319.658 153.07C320.184 153.07 320.598 152.961 320.901 152.743C321.204 152.521 321.356 152.22 321.356 151.84C321.356 151.626 321.307 151.453 321.209 151.321C321.115 151.184 320.92 151.058 320.626 150.943C320.331 150.828 319.891 150.691 319.306 150.533C318.678 150.362 318.187 150.191 317.832 150.02C317.478 149.85 317.226 149.653 317.076 149.431C316.927 149.205 316.852 148.929 316.852 148.605C316.852 148.212 316.963 147.868 317.185 147.573C317.407 147.274 317.715 147.044 318.108 146.881C318.501 146.715 318.958 146.631 319.479 146.631C320 146.631 320.465 146.717 320.875 146.888C321.29 147.054 321.623 147.289 321.875 147.592C322.127 147.896 322.276 148.248 322.323 148.649L321.362 148.822C321.298 148.417 321.095 148.096 320.754 147.861C320.416 147.622 319.987 147.498 319.466 147.49C318.975 147.477 318.576 147.571 318.268 147.772C317.961 147.968 317.807 148.231 317.807 148.56C317.807 148.743 317.862 148.901 317.973 149.034C318.084 149.162 318.285 149.284 318.576 149.399C318.87 149.514 319.289 149.64 319.831 149.777C320.468 149.939 320.967 150.11 321.33 150.29C321.693 150.469 321.952 150.68 322.106 150.924C322.259 151.167 322.336 151.468 322.336 151.827C322.336 152.481 322.093 152.995 321.606 153.371C321.123 153.743 320.457 153.928 319.607 153.928ZM331.832 153.743V150.213C331.832 149.828 331.795 149.476 331.723 149.156C331.65 148.831 331.533 148.549 331.37 148.31C331.212 148.066 331.005 147.879 330.749 147.746C330.497 147.614 330.19 147.548 329.827 147.548C329.493 147.548 329.199 147.605 328.942 147.721C328.69 147.836 328.477 148.002 328.302 148.22C328.131 148.434 328.001 148.694 327.911 149.002C327.821 149.309 327.776 149.66 327.776 150.053L327.11 149.905C327.11 149.196 327.234 148.6 327.482 148.118C327.729 147.635 328.071 147.27 328.507 147.022C328.942 146.774 329.442 146.651 330.006 146.651C330.42 146.651 330.781 146.715 331.089 146.843C331.4 146.971 331.663 147.144 331.877 147.362C332.094 147.58 332.27 147.829 332.402 148.111C332.534 148.389 332.63 148.686 332.69 149.002C332.75 149.314 332.78 149.625 332.78 149.937V153.743H331.832ZM326.828 153.743V144.517H327.68V149.726H327.776V153.743H326.828ZM337.626 153.935C336.952 153.935 336.367 153.785 335.871 153.486C335.38 153.187 334.998 152.767 334.724 152.224C334.451 151.682 334.314 151.046 334.314 150.315C334.314 149.559 334.449 148.906 334.718 148.355C334.987 147.804 335.365 147.379 335.852 147.08C336.343 146.781 336.922 146.631 337.588 146.631C338.271 146.631 338.854 146.789 339.337 147.105C339.82 147.417 340.185 147.866 340.433 148.451C340.68 149.036 340.793 149.734 340.772 150.546H339.811V150.213C339.794 149.316 339.6 148.639 339.228 148.182C338.861 147.725 338.323 147.496 337.614 147.496C336.871 147.496 336.3 147.738 335.903 148.22C335.51 148.703 335.314 149.39 335.314 150.283C335.314 151.154 335.51 151.831 335.903 152.314C336.3 152.792 336.862 153.032 337.588 153.032C338.083 153.032 338.515 152.918 338.882 152.692C339.254 152.461 339.546 152.13 339.76 151.699L340.638 152.039C340.364 152.641 339.961 153.108 339.427 153.442C338.897 153.77 338.297 153.935 337.626 153.935ZM334.981 150.546V149.758H340.266V150.546H334.981ZM342.45 153.743V146.824H343.296V148.489L343.129 148.271C343.206 148.066 343.306 147.879 343.43 147.708C343.554 147.533 343.689 147.39 343.834 147.278C344.013 147.12 344.223 147.001 344.462 146.92C344.701 146.834 344.942 146.785 345.186 146.772C345.429 146.755 345.651 146.772 345.852 146.824V147.708C345.6 147.644 345.325 147.629 345.026 147.663C344.727 147.697 344.451 147.817 344.199 148.022C343.968 148.201 343.795 148.417 343.68 148.669C343.565 148.916 343.488 149.181 343.45 149.463C343.411 149.741 343.392 150.016 343.392 150.29V153.743H342.45ZM350.126 153.935C349.451 153.935 348.866 153.785 348.371 153.486C347.88 153.187 347.497 152.767 347.224 152.224C346.951 151.682 346.814 151.046 346.814 150.315C346.814 149.559 346.949 148.906 347.218 148.355C347.487 147.804 347.865 147.379 348.352 147.08C348.843 146.781 349.422 146.631 350.088 146.631C350.771 146.631 351.354 146.789 351.837 147.105C352.319 147.417 352.685 147.866 352.932 148.451C353.18 149.036 353.293 149.734 353.272 150.546H352.311V150.213C352.294 149.316 352.099 148.639 351.728 148.182C351.361 147.725 350.822 147.496 350.113 147.496C349.37 147.496 348.8 147.738 348.403 148.22C348.01 148.703 347.813 149.39 347.813 150.283C347.813 151.154 348.01 151.831 348.403 152.314C348.8 152.792 349.362 153.032 350.088 153.032C350.583 153.032 351.015 152.918 351.382 152.692C351.754 152.461 352.046 152.13 352.26 151.699L353.137 152.039C352.864 152.641 352.46 153.108 351.926 153.442C351.397 153.77 350.797 153.935 350.126 153.935ZM347.48 150.546V149.758H352.766V150.546H347.48Z" fill="#4D4D4D"/>
<rect x="437.128" y="130.333" width="142.368" height="42.7103" rx="21.3552" fill="#0073E5"/>
<path d="M480.552 156.88C479.89 156.88 479.293 156.767 478.759 156.541C478.229 156.31 477.791 155.983 477.445 155.56C477.104 155.133 476.882 154.627 476.779 154.042L478.176 153.831C478.317 154.394 478.611 154.834 479.06 155.15C479.508 155.462 480.031 155.618 480.629 155.618C481.001 155.618 481.343 155.56 481.654 155.445C481.966 155.326 482.216 155.157 482.404 154.939C482.596 154.717 482.692 154.452 482.692 154.145C482.692 153.978 482.662 153.831 482.603 153.703C482.547 153.574 482.468 153.463 482.366 153.369C482.267 153.271 482.146 153.188 482 153.12C481.859 153.047 481.704 152.985 481.533 152.934L479.169 152.235C478.938 152.167 478.703 152.08 478.464 151.973C478.225 151.862 478.005 151.719 477.804 151.544C477.608 151.364 477.447 151.144 477.324 150.884C477.2 150.619 477.138 150.299 477.138 149.923C477.138 149.355 477.283 148.874 477.573 148.481C477.868 148.084 478.265 147.785 478.765 147.584C479.265 147.379 479.824 147.277 480.444 147.277C481.067 147.285 481.624 147.396 482.116 147.61C482.611 147.823 483.021 148.131 483.346 148.532C483.675 148.93 483.901 149.412 484.025 149.98L482.59 150.224C482.526 149.878 482.389 149.581 482.18 149.333C481.97 149.081 481.714 148.889 481.411 148.757C481.108 148.62 480.779 148.55 480.424 148.545C480.083 148.537 479.769 148.588 479.483 148.699C479.201 148.81 478.974 148.966 478.803 149.167C478.637 149.367 478.554 149.598 478.554 149.859C478.554 150.115 478.628 150.322 478.778 150.48C478.927 150.638 479.111 150.764 479.329 150.858C479.551 150.948 479.771 151.022 479.989 151.082L481.693 151.563C481.906 151.623 482.148 151.704 482.417 151.806C482.69 151.904 482.953 152.043 483.205 152.223C483.461 152.402 483.672 152.641 483.839 152.94C484.006 153.235 484.089 153.606 484.089 154.055C484.089 154.52 483.995 154.93 483.807 155.285C483.619 155.635 483.361 155.93 483.032 156.169C482.707 156.404 482.331 156.581 481.904 156.701C481.477 156.82 481.027 156.88 480.552 156.88ZM488.318 156.874C487.84 156.874 487.438 156.797 487.113 156.643C486.789 156.489 486.524 156.289 486.319 156.041C486.118 155.789 485.965 155.516 485.858 155.221C485.751 154.926 485.678 154.638 485.64 154.356C485.602 154.074 485.582 153.826 485.582 153.613V149.769H486.94V153.171C486.94 153.44 486.962 153.717 487.005 154.004C487.052 154.286 487.137 154.548 487.261 154.792C487.389 155.035 487.566 155.232 487.793 155.381C488.023 155.531 488.322 155.605 488.689 155.605C488.929 155.605 489.155 155.567 489.369 155.49C489.582 155.409 489.768 155.281 489.926 155.106C490.088 154.93 490.214 154.7 490.304 154.414C490.398 154.128 490.445 153.779 490.445 153.369L491.278 153.683C491.278 154.311 491.16 154.866 490.925 155.349C490.69 155.827 490.353 156.201 489.913 156.47C489.473 156.739 488.941 156.874 488.318 156.874ZM490.605 156.688V154.689H490.445V149.769H491.797V156.688H490.605ZM497.098 156.88C496.436 156.88 495.881 156.72 495.432 156.4C494.984 156.075 494.644 155.637 494.414 155.086C494.183 154.535 494.068 153.914 494.068 153.222C494.068 152.53 494.181 151.909 494.407 151.358C494.638 150.807 494.975 150.373 495.419 150.057C495.868 149.737 496.419 149.577 497.072 149.577C497.721 149.577 498.281 149.737 498.751 150.057C499.225 150.373 499.59 150.807 499.846 151.358C500.103 151.904 500.231 152.526 500.231 153.222C500.231 153.914 500.103 154.538 499.846 155.093C499.594 155.644 499.233 156.079 498.764 156.4C498.298 156.72 497.743 156.88 497.098 156.88ZM493.843 156.688V147.463H495.189V151.71H495.035V156.688H493.843ZM496.912 155.669C497.339 155.669 497.692 155.56 497.969 155.343C498.251 155.125 498.46 154.832 498.597 154.465C498.738 154.093 498.808 153.679 498.808 153.222C498.808 152.769 498.738 152.359 498.597 151.992C498.46 151.625 498.249 151.332 497.963 151.114C497.677 150.896 497.311 150.788 496.867 150.788C496.449 150.788 496.103 150.89 495.829 151.095C495.56 151.3 495.36 151.586 495.227 151.954C495.099 152.321 495.035 152.744 495.035 153.222C495.035 153.7 495.099 154.123 495.227 154.491C495.355 154.858 495.558 155.146 495.836 155.355C496.113 155.565 496.472 155.669 496.912 155.669ZM504.422 156.874C503.581 156.874 502.895 156.688 502.366 156.316C501.836 155.945 501.512 155.422 501.392 154.747L502.763 154.535C502.848 154.894 503.045 155.178 503.352 155.387C503.664 155.592 504.051 155.695 504.512 155.695C504.931 155.695 505.257 155.61 505.492 155.439C505.731 155.268 505.851 155.033 505.851 154.734C505.851 154.559 505.808 154.418 505.723 154.311C505.642 154.2 505.469 154.095 505.204 153.997C504.939 153.899 504.535 153.777 503.993 153.632C503.399 153.478 502.927 153.314 502.577 153.139C502.231 152.959 501.983 152.752 501.834 152.517C501.689 152.278 501.616 151.99 501.616 151.652C501.616 151.234 501.727 150.869 501.949 150.557C502.171 150.245 502.483 150.004 502.885 149.833C503.29 149.662 503.765 149.577 504.307 149.577C504.837 149.577 505.308 149.66 505.723 149.827C506.137 149.993 506.472 150.23 506.729 150.538C506.985 150.841 507.139 151.198 507.19 151.608L505.819 151.857C505.772 151.524 505.616 151.262 505.351 151.069C505.086 150.877 504.743 150.773 504.32 150.756C503.914 150.738 503.585 150.807 503.333 150.961C503.081 151.11 502.955 151.317 502.955 151.582C502.955 151.736 503.002 151.866 503.096 151.973C503.194 152.08 503.382 152.182 503.66 152.28C503.937 152.379 504.348 152.496 504.89 152.633C505.471 152.782 505.932 152.949 506.274 153.132C506.615 153.312 506.859 153.527 507.004 153.779C507.154 154.027 507.228 154.328 507.228 154.683C507.228 155.366 506.978 155.902 506.479 156.291C505.983 156.679 505.298 156.874 504.422 156.874ZM511.862 156.88C511.153 156.88 510.551 156.722 510.055 156.406C509.56 156.09 509.18 155.657 508.915 155.106C508.654 154.555 508.522 153.929 508.518 153.228C508.522 152.515 508.659 151.885 508.928 151.339C509.197 150.788 509.581 150.356 510.081 150.044C510.581 149.733 511.181 149.577 511.881 149.577C512.637 149.577 513.282 149.765 513.816 150.141C514.354 150.516 514.709 151.031 514.879 151.684L513.547 152.069C513.414 151.68 513.197 151.379 512.893 151.166C512.594 150.948 512.251 150.839 511.862 150.839C511.422 150.839 511.061 150.943 510.779 151.153C510.497 151.358 510.288 151.64 510.151 151.998C510.015 152.357 509.944 152.767 509.94 153.228C509.944 153.942 510.107 154.518 510.427 154.958C510.751 155.398 511.23 155.618 511.862 155.618C512.293 155.618 512.641 155.52 512.906 155.323C513.175 155.123 513.38 154.836 513.521 154.465L514.879 154.785C514.653 155.46 514.279 155.979 513.758 156.342C513.237 156.701 512.605 156.88 511.862 156.88ZM516.441 156.688V149.769H517.632V151.447L517.466 151.23C517.551 151.008 517.662 150.805 517.799 150.621C517.936 150.433 518.094 150.279 518.273 150.16C518.448 150.032 518.643 149.933 518.856 149.865C519.074 149.792 519.296 149.75 519.522 149.737C519.749 149.72 519.967 149.73 520.176 149.769V151.025C519.949 150.965 519.697 150.948 519.42 150.973C519.147 150.999 518.895 151.087 518.664 151.236C518.446 151.377 518.273 151.548 518.145 151.749C518.021 151.949 517.931 152.174 517.876 152.421C517.82 152.665 517.793 152.923 517.793 153.196V156.688H516.441ZM521.78 148.635V147.334H523.119V148.635H521.78ZM521.78 156.688V149.769H523.119V156.688H521.78ZM528.547 156.88C527.885 156.88 527.33 156.72 526.882 156.4C526.433 156.075 526.094 155.637 525.863 155.086C525.633 154.535 525.517 153.914 525.517 153.222C525.517 152.53 525.63 151.909 525.857 151.358C526.087 150.807 526.425 150.373 526.869 150.057C527.317 149.737 527.868 149.577 528.522 149.577C529.171 149.577 529.731 149.737 530.2 150.057C530.674 150.373 531.04 150.807 531.296 151.358C531.552 151.904 531.68 152.526 531.68 153.222C531.68 153.914 531.552 154.538 531.296 155.093C531.044 155.644 530.683 156.079 530.213 156.4C529.748 156.72 529.192 156.88 528.547 156.88ZM525.293 156.688V147.463H526.638V151.71H526.485V156.688H525.293ZM528.362 155.669C528.789 155.669 529.141 155.56 529.419 155.343C529.701 155.125 529.91 154.832 530.047 154.465C530.188 154.093 530.258 153.679 530.258 153.222C530.258 152.769 530.188 152.359 530.047 151.992C529.91 151.625 529.699 151.332 529.412 151.114C529.126 150.896 528.761 150.788 528.317 150.788C527.898 150.788 527.552 150.89 527.279 151.095C527.01 151.3 526.809 151.586 526.677 151.954C526.549 152.321 526.485 152.744 526.485 153.222C526.485 153.7 526.549 154.123 526.677 154.491C526.805 154.858 527.008 155.146 527.285 155.355C527.563 155.565 527.922 155.669 528.362 155.669ZM536.42 156.88C535.732 156.88 535.128 156.731 534.607 156.432C534.09 156.128 533.686 155.708 533.396 155.17C533.11 154.627 532.967 153.999 532.967 153.286C532.967 152.53 533.108 151.875 533.39 151.319C533.676 150.764 534.073 150.335 534.581 150.032C535.089 149.728 535.681 149.577 536.356 149.577C537.06 149.577 537.661 149.741 538.156 150.07C538.651 150.395 539.021 150.858 539.264 151.46C539.512 152.062 539.61 152.778 539.559 153.606H538.22V153.12C538.212 152.317 538.058 151.723 537.759 151.339C537.464 150.954 537.014 150.762 536.407 150.762C535.736 150.762 535.232 150.973 534.895 151.396C534.558 151.819 534.389 152.43 534.389 153.228C534.389 153.989 534.558 154.578 534.895 154.997C535.232 155.411 535.719 155.618 536.356 155.618C536.774 155.618 537.135 155.524 537.438 155.336C537.746 155.144 537.985 154.871 538.156 154.516L539.469 154.933C539.2 155.552 538.792 156.032 538.246 156.374C537.699 156.711 537.09 156.88 536.42 156.88ZM533.953 153.606V152.562H538.893V153.606H533.953Z" fill="white"/>
<path d="M297.679 102.067C296.622 102.067 295.668 101.888 294.818 101.528C293.975 101.169 293.278 100.658 292.725 99.9945C292.179 99.3243 291.823 98.5332 291.657 97.6212L293.564 97.3207C293.806 98.2603 294.307 98.9962 295.067 99.5282C295.834 100.053 296.736 100.316 297.772 100.316C298.442 100.316 299.047 100.212 299.586 100.005C300.132 99.7907 300.563 99.4867 300.881 99.0929C301.199 98.6991 301.358 98.2327 301.358 97.6938C301.358 97.3621 301.299 97.0789 301.182 96.844C301.071 96.6021 300.916 96.3983 300.715 96.2325C300.522 96.0598 300.301 95.9147 300.052 95.7972C299.803 95.6798 299.544 95.583 299.275 95.507L295.471 94.3774C295.057 94.253 294.656 94.0976 294.269 93.911C293.882 93.7176 293.537 93.4792 293.233 93.1959C292.929 92.9058 292.687 92.5603 292.507 92.1596C292.328 91.7519 292.238 91.2717 292.238 90.719C292.238 89.8346 292.466 89.0816 292.922 88.4597C293.385 87.831 294.01 87.3508 294.798 87.0192C295.585 86.6875 296.473 86.5252 297.461 86.5321C298.463 86.539 299.358 86.7186 300.145 87.071C300.94 87.4165 301.596 87.9139 302.114 88.5634C302.64 89.2128 302.992 89.9901 303.172 90.8952L301.213 91.2372C301.109 90.6292 300.878 90.1076 300.518 89.6723C300.166 89.2301 299.724 88.8916 299.192 88.6566C298.66 88.4148 298.076 88.2905 297.44 88.2835C296.832 88.2766 296.283 88.3734 295.793 88.5737C295.302 88.7741 294.912 89.0539 294.621 89.4132C294.331 89.7656 294.186 90.1732 294.186 90.6361C294.186 91.0921 294.317 91.4617 294.58 91.745C294.843 92.0214 295.164 92.2425 295.544 92.4083C295.931 92.5672 296.307 92.6985 296.673 92.8021L299.513 93.6208C299.838 93.7107 300.211 93.835 300.632 93.9939C301.061 94.1529 301.475 94.3774 301.876 94.6676C302.277 94.9509 302.608 95.3309 302.871 95.8076C303.134 96.2774 303.265 96.8716 303.265 97.5901C303.265 98.3087 303.12 98.9478 302.83 99.5074C302.546 100.067 302.149 100.537 301.638 100.917C301.126 101.29 300.532 101.573 299.855 101.767C299.178 101.967 298.453 102.067 297.679 102.067ZM310.102 102.047C309.384 102.047 308.765 101.933 308.247 101.705C307.736 101.477 307.311 101.173 306.973 100.793C306.634 100.413 306.368 99.9911 306.175 99.5282C305.981 99.0652 305.843 98.592 305.76 98.1083C305.684 97.6247 305.646 97.1721 305.646 96.7507V90.5636H307.511V96.1703C307.511 96.6954 307.56 97.2032 307.657 97.6938C307.753 98.1843 307.916 98.6265 308.144 99.0203C308.379 99.4142 308.689 99.7251 309.076 99.9531C309.47 100.181 309.961 100.295 310.548 100.295C311.011 100.295 311.432 100.216 311.812 100.057C312.192 99.8978 312.517 99.6629 312.787 99.352C313.056 99.0342 313.263 98.6334 313.408 98.1498C313.554 97.6661 313.626 97.1031 313.626 96.4605L314.839 96.8336C314.839 97.9114 314.642 98.8407 314.248 99.6214C313.861 100.402 313.312 101.003 312.6 101.425C311.895 101.839 311.063 102.047 310.102 102.047ZM313.833 101.756V98.7612H313.626V90.5636H315.481V101.756H313.833ZM323.938 102.067C322.888 102.067 322.003 101.808 321.285 101.29C320.566 100.765 320.02 100.057 319.647 99.1654C319.281 98.2672 319.098 97.262 319.098 96.1496C319.098 95.0234 319.281 94.0147 319.647 93.1234C320.02 92.2321 320.566 91.5308 321.285 91.0196C322.01 90.5083 322.898 90.2527 323.948 90.2527C324.985 90.2527 325.876 90.5117 326.622 91.0299C327.375 91.5412 327.952 92.2425 328.353 93.1338C328.753 94.025 328.954 95.0303 328.954 96.1496C328.954 97.2689 328.753 98.2741 328.353 99.1654C327.952 100.057 327.375 100.765 326.622 101.29C325.876 101.808 324.981 102.067 323.938 102.067ZM318.787 101.756V86.8326H320.642V93.5172H320.435V101.756H318.787ZM323.71 100.378C324.449 100.378 325.061 100.191 325.544 99.8183C326.028 99.4452 326.391 98.9409 326.632 98.3052C326.874 97.6627 326.995 96.9441 326.995 96.1496C326.995 95.3619 326.874 94.6503 326.632 94.0147C326.397 93.379 326.031 92.8747 325.534 92.5016C325.043 92.1285 324.418 91.9419 323.658 91.9419C322.932 91.9419 322.331 92.1216 321.855 92.4808C321.378 92.8332 321.022 93.3272 320.787 93.9629C320.552 94.5916 320.435 95.3205 320.435 96.1496C320.435 96.9649 320.549 97.6938 320.777 98.3363C321.012 98.972 321.371 99.4729 321.855 99.8391C322.338 100.198 322.957 100.378 323.71 100.378ZM335.707 102.057C334.373 102.057 333.278 101.767 332.421 101.186C331.572 100.599 331.05 99.7803 330.857 98.7301L332.743 98.4296C332.895 99.0376 333.244 99.5212 333.789 99.8805C334.335 100.233 335.012 100.409 335.821 100.409C336.588 100.409 337.189 100.25 337.624 99.9323C338.059 99.6145 338.277 99.1827 338.277 98.6369C338.277 98.3191 338.204 98.0634 338.059 97.87C337.914 97.6696 337.614 97.4831 337.158 97.3103C336.709 97.1376 336.028 96.9303 335.116 96.6885C334.128 96.426 333.351 96.153 332.784 95.8698C332.218 95.5865 331.813 95.2583 331.572 94.8852C331.33 94.5121 331.209 94.0596 331.209 93.5276C331.209 92.8712 331.389 92.2978 331.748 91.8072C332.107 91.3097 332.608 90.9263 333.251 90.6568C333.9 90.3874 334.653 90.2527 335.51 90.2527C336.36 90.2527 337.12 90.3874 337.79 90.6568C338.46 90.9263 338.999 91.3097 339.407 91.8072C339.821 92.2978 340.066 92.8712 340.142 93.5276L338.256 93.8696C338.166 93.2685 337.876 92.7952 337.386 92.4498C336.902 92.1043 336.277 91.9212 335.51 91.9005C334.784 91.8728 334.194 92.0007 333.738 92.2839C333.289 92.5672 333.064 92.9507 333.064 93.4343C333.064 93.7038 333.147 93.9352 333.313 94.1287C333.485 94.3221 333.8 94.5052 334.256 94.6779C334.719 94.8507 335.389 95.0476 336.266 95.2687C337.254 95.5174 338.032 95.7903 338.598 96.0874C339.172 96.3776 339.579 96.723 339.821 97.1238C340.063 97.5176 340.184 98.0047 340.184 98.5851C340.184 99.6629 339.787 100.513 338.992 101.135C338.197 101.749 337.102 102.057 335.707 102.057ZM347.6 102.067C346.466 102.067 345.503 101.815 344.708 101.311C343.92 100.799 343.319 100.098 342.905 99.2069C342.49 98.3156 342.276 97.3 342.262 96.16C342.276 94.9923 342.494 93.9663 342.915 93.0819C343.344 92.1907 343.955 91.4963 344.75 90.9988C345.544 90.5014 346.501 90.2527 347.62 90.2527C348.802 90.2527 349.817 90.5428 350.667 91.1232C351.524 91.7036 352.097 92.4981 352.388 93.5068L350.564 94.0561C350.329 93.4067 349.945 92.9023 349.413 92.543C348.888 92.1838 348.284 92.0041 347.6 92.0041C346.833 92.0041 346.2 92.1838 345.703 92.543C345.206 92.8954 344.836 93.3859 344.594 94.0147C344.352 94.6365 344.228 95.3516 344.221 96.16C344.235 97.4036 344.522 98.4089 345.081 99.1758C345.648 99.9358 346.487 100.316 347.6 100.316C348.332 100.316 348.94 100.15 349.424 99.8183C349.907 99.4798 350.273 98.9927 350.522 98.3571L352.388 98.8442C352.001 99.8874 351.396 100.685 350.574 101.238C349.752 101.791 348.76 102.067 347.6 102.067ZM354.917 101.756V90.5636H356.565V93.2685L356.296 92.9161C356.427 92.5707 356.596 92.2528 356.803 91.9627C357.018 91.6725 357.256 91.4341 357.519 91.2476C357.809 91.0127 358.137 90.833 358.503 90.7087C358.869 90.5843 359.242 90.5117 359.622 90.491C360.002 90.4634 360.358 90.4876 360.69 90.5636V92.2943C360.303 92.1907 359.878 92.163 359.415 92.2114C358.952 92.2598 358.524 92.429 358.13 92.7192C357.771 92.9748 357.491 93.2858 357.291 93.6519C357.097 94.0181 356.962 94.4154 356.886 94.8438C356.81 95.2652 356.772 95.697 356.772 96.1392V101.756H354.917ZM363.271 88.5841V86.6772H365.116V88.5841H363.271ZM363.271 101.756V90.5636H365.116V101.756H363.271ZM373.781 102.067C372.73 102.067 371.846 101.808 371.128 101.29C370.409 100.765 369.863 100.057 369.49 99.1654C369.124 98.2672 368.941 97.262 368.941 96.1496C368.941 95.0234 369.124 94.0147 369.49 93.1234C369.863 92.2321 370.409 91.5308 371.128 91.0196C371.853 90.5083 372.741 90.2527 373.791 90.2527C374.827 90.2527 375.719 90.5117 376.465 91.0299C377.218 91.5412 377.795 92.2425 378.196 93.1338C378.596 94.025 378.797 95.0303 378.797 96.1496C378.797 97.2689 378.596 98.2741 378.196 99.1654C377.795 100.057 377.218 100.765 376.465 101.29C375.719 101.808 374.824 102.067 373.781 102.067ZM368.63 101.756V86.8326H370.485V93.5172H370.278V101.756H368.63ZM373.553 100.378C374.292 100.378 374.903 100.191 375.387 99.8183C375.871 99.4452 376.233 98.9409 376.475 98.3052C376.717 97.6627 376.838 96.9441 376.838 96.1496C376.838 95.3619 376.717 94.6503 376.475 94.0147C376.24 93.379 375.874 92.8747 375.377 92.5016C374.886 92.1285 374.261 91.9419 373.501 91.9419C372.775 91.9419 372.174 92.1216 371.698 92.4808C371.221 92.8332 370.865 93.3272 370.63 93.9629C370.395 94.5916 370.278 95.3205 370.278 96.1496C370.278 96.9649 370.392 97.6938 370.62 98.3363C370.855 98.972 371.214 99.4729 371.698 99.8391C372.181 100.198 372.8 100.378 373.553 100.378ZM386.333 102.067C385.235 102.067 384.274 101.825 383.452 101.342C382.637 100.851 382.001 100.171 381.545 99.3002C381.089 98.4227 380.861 97.4001 380.861 96.2325C380.861 95.0096 381.086 93.9525 381.535 93.0612C381.984 92.163 382.609 91.4721 383.411 90.9885C384.219 90.4979 385.166 90.2527 386.25 90.2527C387.377 90.2527 388.334 90.5117 389.121 91.0299C389.916 91.5481 390.51 92.2874 390.904 93.2478C391.304 94.2081 391.477 95.3516 391.422 96.6781H389.556V96.0149C389.536 94.6399 389.256 93.6139 388.717 92.9368C388.178 92.2528 387.377 91.9108 386.313 91.9108C385.173 91.9108 384.306 92.277 383.711 93.0094C383.117 93.7418 382.82 94.7919 382.82 96.16C382.82 97.4796 383.117 98.5021 383.711 99.2276C384.306 99.9531 385.152 100.316 386.25 100.316C386.99 100.316 387.632 100.147 388.178 99.808C388.724 99.4694 389.152 98.9823 389.463 98.3467L391.235 98.9582C390.8 99.9462 390.144 100.713 389.266 101.259C388.396 101.798 387.418 102.067 386.333 102.067ZM382.198 96.6781V95.1961H390.468V96.6781H382.198ZM406.678 101.756V96.1496C406.678 95.6176 406.629 95.1063 406.533 94.6158C406.443 94.1252 406.28 93.6865 406.045 93.2996C405.817 92.9058 405.507 92.5948 405.113 92.3668C404.726 92.1388 404.235 92.0248 403.641 92.0248C403.178 92.0248 402.757 92.1043 402.377 92.2632C402.004 92.4152 401.682 92.6501 401.413 92.9679C401.143 93.2858 400.933 93.6865 400.781 94.1701C400.636 94.6469 400.563 95.2099 400.563 95.8594L399.35 95.4863C399.35 94.4016 399.544 93.4723 399.931 92.6985C400.325 91.9177 400.874 91.3201 401.579 90.9056C402.29 90.4841 403.126 90.2734 404.087 90.2734C404.812 90.2734 405.431 90.3874 405.942 90.6154C406.453 90.8434 406.878 91.1474 407.217 91.5274C407.555 91.9005 407.821 92.3219 408.015 92.7918C408.208 93.2547 408.343 93.7279 408.419 94.2116C408.502 94.6883 408.543 95.1409 408.543 95.5692V101.756H406.678ZM398.698 101.756V90.5636H400.356V93.5587H400.563V101.756H398.698ZM416.318 102.067C415.206 102.067 414.245 101.815 413.437 101.311C412.636 100.806 412.017 100.109 411.582 99.2172C411.147 98.326 410.929 97.3034 410.929 96.1496C410.929 94.975 411.15 93.9456 411.592 93.0612C412.034 92.1768 412.66 91.4894 413.468 90.9988C414.276 90.5014 415.226 90.2527 416.318 90.2527C417.437 90.2527 418.401 90.5048 419.21 91.0092C420.018 91.5067 420.636 92.201 421.065 93.0923C421.5 93.9767 421.718 94.9958 421.718 96.1496C421.718 97.3172 421.5 98.3467 421.065 99.238C420.629 100.122 420.008 100.817 419.199 101.321C418.391 101.819 417.43 102.067 416.318 102.067ZM416.318 100.316C417.479 100.316 418.342 99.9289 418.909 99.1551C419.476 98.3812 419.759 97.3794 419.759 96.1496C419.759 94.8852 419.472 93.8799 418.899 93.1338C418.325 92.3807 417.465 92.0041 416.318 92.0041C415.537 92.0041 414.895 92.1803 414.39 92.5327C413.886 92.885 413.51 93.3721 413.261 93.9939C413.012 94.6158 412.888 95.3343 412.888 96.1496C412.888 97.4071 413.178 98.4158 413.758 99.1758C414.339 99.9358 415.192 100.316 416.318 100.316ZM426.393 101.756L422.973 90.5532L424.807 90.5636L427.305 98.7509L429.823 90.5636H431.45L433.958 98.7509L436.466 90.5636H438.29L434.87 101.756H433.336L430.631 93.2478L427.927 101.756H426.393Z" fill="#0073E5"/>
<g filter="url(#filter1_f_59_1101)">
<path fill-rule="evenodd" clip-rule="evenodd" d="M689.94 52.0607C689.94 37.8999 678.461 26.4204 664.3 26.4204H52.9404C38.7796 26.4204 27.3001 37.9 27.3001 52.0607V229.94C27.3001 244.101 38.7796 255.58 52.9404 255.58H664.3C678.461 255.58 689.94 244.101 689.94 229.94V52.0607ZM518.052 245.999C577.671 245.999 626.001 199.526 626.001 142.198C626.001 84.8708 577.671 38.3976 518.052 38.3976C458.434 38.3976 410.103 84.8708 410.103 142.198C410.103 199.526 458.434 245.999 518.052 245.999Z" fill="black" fill-opacity="0.1"/>
</g>
<path d="M549.657 191.222C549.618 191.3 549.584 191.379 549.553 191.458C549.254 190.841 548.79 190.359 548.168 190.034C547.405 189.636 546.588 189.583 545.764 189.863C544.962 190.135 544.36 190.668 543.984 191.431C543.884 191.634 543.806 191.841 543.751 192.049C543.436 191.615 543.026 191.26 542.526 190.992C541.672 190.536 540.764 190.461 539.848 190.771C538.954 191.075 538.282 191.664 537.864 192.511C537.782 192.677 537.715 192.844 537.66 193.012L535.013 185.208C534.703 184.296 534.118 183.599 533.275 183.148C532.421 182.691 531.513 182.616 530.597 182.927C529.703 183.23 529.031 183.819 528.613 184.667C528.195 185.514 528.136 186.406 528.439 187.3L534.024 203.763L531.193 201.819L531.193 201.819L531.189 201.816C530.208 201.153 529.132 200.997 528.023 201.373C527.135 201.674 526.475 202.269 526.069 203.121C525.665 203.968 525.607 204.851 525.906 205.733C526.153 206.46 526.6 207.046 527.236 207.474C527.237 207.474 527.238 207.475 527.239 207.476L538.676 215.304C538.676 215.304 538.676 215.304 538.676 215.304C539.609 215.947 540.648 216.089 541.724 215.724L556.457 210.726C556.9 210.575 557.26 210.298 557.519 209.908C557.778 209.518 557.893 209.078 557.851 208.611C557.85 208.61 557.85 208.608 557.85 208.607L557.177 200.423C557.055 198.944 556.758 197.507 556.285 196.113L554.775 191.66C554.53 190.937 554.059 190.382 553.386 190.021C552.704 189.654 551.975 189.586 551.246 189.834C550.531 190.076 549.99 190.547 549.657 191.222ZM537.892 189.265L538.13 189.965L538.805 189.665C539.095 189.536 539.285 189.459 539.391 189.423C540.58 189.02 541.747 189.079 542.927 189.611L543.335 189.795L543.663 189.491C544.138 189.051 544.684 188.726 545.307 188.515C546.662 188.055 547.911 188.2 549.113 188.952L549.48 189.182L549.841 188.944C550.129 188.756 550.444 188.603 550.788 188.486C551.901 188.108 552.955 188.187 553.994 188.724C555.041 189.266 555.743 190.082 556.123 191.203L557.634 195.656C558.154 197.191 558.473 198.739 558.591 200.302L558.592 200.306L559.266 208.498C559.331 209.298 559.147 210.02 558.707 210.689C558.266 211.359 557.675 211.816 556.914 212.074L542.181 217.072C541.462 217.316 540.722 217.384 539.951 217.276C539.177 217.166 538.482 216.903 537.859 216.486C537.859 216.486 537.858 216.485 537.857 216.484L526.418 208.655C525.527 208.045 524.911 207.23 524.558 206.19C524.128 204.924 524.206 203.7 524.798 202.479C525.389 201.261 526.302 200.454 527.565 200.025C528.426 199.733 529.274 199.68 530.12 199.859L531.28 200.105L530.899 198.982L527.091 187.758C526.657 186.477 526.738 185.251 527.336 184.037C527.935 182.823 528.859 182.013 530.14 181.579C531.429 181.141 532.66 181.235 533.876 181.865C535.101 182.5 535.921 183.453 536.361 184.75L537.892 189.265Z" fill="#0073E5" stroke="#0073E5" stroke-width="1.35"/>
<path d="M517.815 182.74C513.589 181.653 509.419 180.427 505.155 179.575" stroke="#0073E5" stroke-width="4.05" stroke-linecap="round"/>
<path d="M525.262 175.292C522.249 172.279 520.306 164.11 517.35 162.632" stroke="url(#paint0_linear_59_1101)" stroke-width="4.05" stroke-linecap="round"/>
<path d="M533.174 156.303V170.545" stroke="white" stroke-width="4.05" stroke-linecap="round"/>
<defs>
<filter id="filter0_d_59_1101" x="7.18238" y="5.62267" width="717.522" height="283.299" filterUnits="userSpaceOnUse" color-interpolation-filters="sRGB">
<feFlood flood-opacity="0" result="BackgroundImageFix"/>
<feColorMatrix in="SourceAlpha" type="matrix" values="0 0 0 0 0 0 0 0 0 0 0 0 0 0 0 0 0 0 127 0" result="hardAlpha"/>
<feOffset dy="14.8053"/>
<feGaussianBlur stdDeviation="37.0132"/>
<feComposite in2="hardAlpha" operator="out"/>
<feColorMatrix type="matrix" values="0 0 0 0 0 0 0 0 0 0 0 0 0 0 0 0 0 0 0.08 0"/>
<feBlend mode="normal" in2="BackgroundImageFix" result="effect1_dropShadow_59_1101"/>
<feBlend mode="normal" in="SourceGraphic" in2="effect1_dropShadow_59_1101" result="shape"/>
</filter>
<filter id="filter1_f_59_1101" x="0.900097" y="0.0203972" width="715.44" height="281.96" filterUnits="userSpaceOnUse" color-interpolation-filters="sRGB">
<feFlood flood-opacity="0" result="BackgroundImageFix"/>
<feBlend mode="normal" in="SourceGraphic" in2="BackgroundImageFix" result="shape"/>
<feGaussianBlur stdDeviation="13.2" result="effect1_foregroundBlur_59_1101"/>
</filter>
<linearGradient id="paint0_linear_59_1101" x1="521.306" y1="162.632" x2="521.306" y2="175.292" gradientUnits="userSpaceOnUse">
<stop offset="0.609375" stop-color="white"/>
<stop offset="1" stop-color="#0073E5"/>
</linearGradient>
</defs>
</svg>
