<svg width="1440" height="626" viewBox="0 0 1440 626" fill="none" xmlns="http://www.w3.org/2000/svg">
<path d="M0 29.3821C80.9354 60.832 117.358 60.4923 167 29.3821C243.795 -16.0442 277.038 -3.00507 334 29.3821C408.622 55.2116 453.869 59.6366 547.5 29.3821C647.053 -6.81223 695.691 -1.69256 776.25 29.3821C872.543 60.1886 921.441 54.9348 1005 29.3821C1062.13 4.73879 1097.95 1.46447 1174 29.3821C1228.97 56.2141 1258.3 58.0687 1307 29.3821C1365.45 5.98141 1394.1 7.66956 1440 29.3821V602.206C1388.04 583.062 1358.97 583.311 1307 602.206C1251.95 618.91 1222.8 619.107 1174 602.206C1108 573.6 1071 577.73 1005 602.206C915.668 634.394 865.582 632.419 776.25 602.206C686.918 571 636.832 565.85 547.5 602.206C475.686 630.969 431.268 636.762 334 602.206C278.108 572.621 241.669 572.175 167 602.206C101.782 631.736 65.2176 619.316 0 602.206V29.3821Z" fill="#E5F2FF"/>
</svg>
