<svg width="421" height="568" viewBox="0 0 421 568" fill="none" xmlns="http://www.w3.org/2000/svg">
<path d="M47.4727 125.623H42.4095V96.9317H58.684V101.231H47.4727V109.67H57.9205V113.97H47.4727V125.623ZM74.9619 103.442C75.2834 103.442 75.6585 103.455 76.0871 103.482C76.5157 103.509 76.8774 103.562 77.172 103.642L76.73 108.344C76.4889 108.29 76.1674 108.25 75.7656 108.223C75.3906 108.17 75.0557 108.143 74.761 108.143C73.9573 108.143 73.1804 108.277 72.4303 108.545C71.707 108.786 71.0507 109.161 70.4613 109.67C69.8988 110.152 69.4433 110.782 69.0951 111.559C68.7736 112.336 68.6129 113.26 68.6129 114.331V125.623H63.5497V103.843H67.4475L68.1708 107.621H68.412C68.8406 106.844 69.3764 106.147 70.0193 105.531C70.6623 104.888 71.399 104.379 72.2294 104.004C73.0867 103.629 73.9975 103.442 74.9619 103.442ZM89.1839 103.442C91.1395 103.442 92.8138 103.843 94.2069 104.647C95.6267 105.424 96.7251 106.549 97.502 108.022C98.2789 109.469 98.6673 111.237 98.6673 113.327V115.899H84.2815C84.335 117.881 84.8842 119.421 85.929 120.52C86.9738 121.591 88.4204 122.127 90.2689 122.127C91.6887 122.127 92.9478 121.993 94.0461 121.725C95.1713 121.431 96.3232 121.015 97.502 120.48V124.538C96.4304 125.047 95.3186 125.422 94.1667 125.663C93.0148 125.904 91.6351 126.025 90.0278 126.025C87.9114 126.025 86.0228 125.623 84.3618 124.819C82.7277 123.989 81.4418 122.743 80.5042 121.082C79.5933 119.421 79.1379 117.359 79.1379 114.894C79.1379 112.403 79.5532 110.313 80.3836 108.625C81.2409 106.911 82.4196 105.625 83.9198 104.768C85.42 103.884 87.1747 103.442 89.1839 103.442ZM89.1839 107.179C87.8444 107.179 86.7461 107.621 85.8888 108.505C85.0583 109.362 84.5627 110.648 84.402 112.362H93.7649C93.7649 111.344 93.5907 110.447 93.2425 109.67C92.921 108.893 92.4254 108.29 91.7557 107.862C91.0859 107.406 90.2287 107.179 89.1839 107.179ZM112.533 103.442C114.489 103.442 116.163 103.843 117.556 104.647C118.976 105.424 120.074 106.549 120.851 108.022C121.628 109.469 122.016 111.237 122.016 113.327V115.899H107.631C107.684 117.881 108.233 119.421 109.278 120.52C110.323 121.591 111.769 122.127 113.618 122.127C115.038 122.127 116.297 121.993 117.395 121.725C118.52 121.431 119.672 121.015 120.851 120.48V124.538C119.779 125.047 118.668 125.422 117.516 125.663C116.364 125.904 114.984 126.025 113.377 126.025C111.26 126.025 109.372 125.623 107.711 124.819C106.077 123.989 104.791 122.743 103.853 121.082C102.942 119.421 102.487 117.359 102.487 114.894C102.487 112.403 102.902 110.313 103.733 108.625C104.59 106.911 105.769 105.625 107.269 104.768C108.769 103.884 110.524 103.442 112.533 103.442ZM112.533 107.179C111.193 107.179 110.095 107.621 109.238 108.505C108.407 109.362 107.912 110.648 107.751 112.362H117.114C117.114 111.344 116.94 110.447 116.592 109.67C116.27 108.893 115.774 108.29 115.105 107.862C114.435 107.406 113.578 107.179 112.533 107.179Z" fill="#333333"/>
<path d="M50.2228 58.1964C50.2228 59.1457 49.9892 59.9745 49.5221 60.6828C49.0549 61.391 48.3768 61.941 47.4878 62.3328C46.6138 62.7095 45.5439 62.8979 44.2781 62.8979C43.7205 62.8979 43.1705 62.8602 42.628 62.7849C42.1006 62.7095 41.5883 62.6041 41.091 62.4684C40.6088 62.3178 40.1492 62.1369 39.7122 61.926V58.7389C40.4807 59.0704 41.2718 59.3793 42.0855 59.6656C42.9143 59.9369 43.7356 60.0725 44.5493 60.0725C45.1069 60.0725 45.5514 59.9971 45.8829 59.8464C46.2295 59.6958 46.4781 59.4923 46.6288 59.2362C46.7946 58.98 46.8775 58.6861 46.8775 58.3546C46.8775 57.9478 46.7343 57.6012 46.448 57.3149C46.1768 57.0285 45.8076 56.7648 45.3404 56.5237C44.8733 56.2676 44.3383 55.9963 43.7356 55.71C43.3589 55.5292 42.952 55.3182 42.515 55.0771C42.078 54.8209 41.6561 54.512 41.2492 54.1504C40.8574 53.7737 40.5334 53.3216 40.2773 52.7942C40.0211 52.2668 39.893 51.6339 39.893 50.8955C39.893 49.9311 40.1115 49.1098 40.5485 48.4317C41.0006 47.7385 41.6335 47.2111 42.4472 46.8495C43.276 46.4878 44.2479 46.307 45.363 46.307C46.2069 46.307 47.0055 46.4049 47.759 46.6008C48.5275 46.7967 49.3262 47.0755 50.155 47.4372L49.0474 50.1044C48.309 49.803 47.646 49.5694 47.0583 49.4037C46.4706 49.2379 45.8678 49.155 45.25 49.155C44.8281 49.155 44.4664 49.2228 44.165 49.3584C43.8637 49.4941 43.6301 49.6824 43.4643 49.9235C43.3137 50.1646 43.2383 50.4509 43.2383 50.7825C43.2383 51.1592 43.3513 51.4832 43.5774 51.7544C43.8034 52.0106 44.1424 52.2592 44.5945 52.5003C45.0466 52.7414 45.6117 53.0277 46.2898 53.3593C47.1186 53.751 47.8193 54.1579 48.3919 54.5798C48.9796 55.0018 49.4317 55.499 49.7481 56.0717C50.0645 56.6443 50.2228 57.3525 50.2228 58.1964ZM58.0838 60.2081C58.4605 60.2081 58.8222 60.1704 59.1688 60.0951C59.5154 60.0197 59.862 59.9293 60.2085 59.8238V62.3328C59.8469 62.4835 59.3948 62.6116 58.8523 62.7171C58.3249 62.8376 57.7448 62.8979 57.1119 62.8979C56.3735 62.8979 55.7105 62.7774 55.1228 62.5363C54.5502 62.2952 54.0905 61.8808 53.744 61.2931C53.4124 60.6903 53.2467 59.8615 53.2467 58.8067V52.862H51.6418V51.438L53.4953 50.3078L54.4673 47.7084H56.6146V50.3304H60.0729V52.862H56.6146V58.8067C56.6146 59.2738 56.7502 59.6279 57.0215 59.869C57.2927 60.0951 57.6468 60.2081 58.0838 60.2081ZM67.7489 50.0818C69.4065 50.0818 70.6723 50.4434 71.5463 51.1667C72.4354 51.875 72.8799 52.9675 72.8799 54.4442V62.6719H70.5291L69.8736 60.9992H69.7832C69.4366 61.4362 69.075 61.7979 68.6983 62.0842C68.3366 62.3705 67.9147 62.5739 67.4325 62.6945C66.9653 62.8301 66.3852 62.8979 65.692 62.8979C64.9687 62.8979 64.3132 62.7623 63.7255 62.491C63.1529 62.2047 62.7008 61.7753 62.3693 61.2027C62.0378 60.615 61.872 59.8766 61.872 58.9875C61.872 57.6765 62.3316 56.7121 63.2508 56.0943C64.17 55.4614 65.5488 55.1148 67.3873 55.0545L69.5346 54.9867V54.4442C69.5346 53.7963 69.3613 53.3216 69.0147 53.0202C68.6832 52.7188 68.2161 52.5681 67.6133 52.5681C67.0105 52.5681 66.4228 52.6585 65.8502 52.8394C65.2776 53.0051 64.705 53.2161 64.1324 53.4723L63.0248 51.1893C63.6878 50.8427 64.4187 50.5715 65.2173 50.3756C66.0311 50.1797 66.8749 50.0818 67.7489 50.0818ZM68.2236 56.9984C67.1386 57.0285 66.3852 57.2244 65.9632 57.5861C65.5413 57.9478 65.3303 58.4224 65.3303 59.0101C65.3303 59.5225 65.481 59.8917 65.7824 60.1177C66.0838 60.3287 66.4756 60.4341 66.9578 60.4341C67.6811 60.4341 68.2914 60.2232 68.7887 59.8012C69.286 59.3642 69.5346 58.7539 69.5346 57.9704V56.9532L68.2236 56.9984ZM83.3343 50.1044C84.6604 50.1044 85.7228 50.466 86.5214 51.1893C87.3201 51.8976 87.7194 53.0428 87.7194 54.625V62.6719H84.3515V55.4614C84.3515 54.5723 84.1933 53.9093 83.8768 53.4723C83.5604 53.0202 83.0556 52.7942 82.3624 52.7942C81.3377 52.7942 80.637 53.1483 80.2603 53.8565C79.8836 54.5497 79.6952 55.5518 79.6952 56.8628V62.6719H76.3273V50.3304H78.9041L79.3561 51.9126H79.537C79.8082 51.4907 80.1397 51.1517 80.5315 50.8955C80.9233 50.6242 81.3603 50.4283 81.8425 50.3078C82.3247 50.1722 82.822 50.1044 83.3343 50.1044ZM95.0933 62.8979C93.722 62.8979 92.5993 62.363 91.7253 61.2931C90.8664 60.2081 90.437 58.6183 90.437 56.5237C90.437 54.4141 90.874 52.8168 91.748 51.7318C92.622 50.6468 93.7672 50.1044 95.1837 50.1044C95.7714 50.1044 96.2912 50.1872 96.7433 50.353C97.1954 50.5037 97.5796 50.7147 97.8961 50.9859C98.2276 51.2571 98.5064 51.566 98.7324 51.9126H98.8454C98.8002 51.6715 98.7475 51.3249 98.6872 50.8729C98.6269 50.4057 98.5968 49.9311 98.5968 49.4489V45.4933H101.965V62.6719H99.3879L98.7324 61.067H98.5968C98.3858 61.3985 98.1146 61.7075 97.7831 61.9938C97.4666 62.265 97.0899 62.4835 96.6529 62.6493C96.2159 62.815 95.696 62.8979 95.0933 62.8979ZM96.2686 60.2081C97.2029 60.2081 97.8584 59.9369 98.2351 59.3944C98.6119 58.8368 98.8078 58.008 98.8228 56.908V56.5463C98.8228 55.3408 98.6345 54.4216 98.2577 53.7887C97.8961 53.1558 97.218 52.8394 96.2234 52.8394C95.4851 52.8394 94.9049 53.1634 94.483 53.8113C94.061 54.4442 93.8501 55.3634 93.8501 56.5689C93.8501 57.7745 94.061 58.6861 94.483 59.304C94.9049 59.9067 95.5001 60.2081 96.2686 60.2081ZM110.55 50.0818C112.207 50.0818 113.473 50.4434 114.347 51.1667C115.236 51.875 115.681 52.9675 115.681 54.4442V62.6719H113.33L112.675 60.9992H112.584C112.238 61.4362 111.876 61.7979 111.499 62.0842C111.137 62.3705 110.716 62.5739 110.233 62.6945C109.766 62.8301 109.186 62.8979 108.493 62.8979C107.77 62.8979 107.114 62.7623 106.526 62.491C105.954 62.2047 105.502 61.7753 105.17 61.2027C104.839 60.615 104.673 59.8766 104.673 58.9875C104.673 57.6765 105.132 56.7121 106.052 56.0943C106.971 55.4614 108.35 55.1148 110.188 55.0545L112.335 54.9867V54.4442C112.335 53.7963 112.162 53.3216 111.816 53.0202C111.484 52.7188 111.017 52.5681 110.414 52.5681C109.811 52.5681 109.224 52.6585 108.651 52.8394C108.078 53.0051 107.506 53.2161 106.933 53.4723L105.826 51.1893C106.489 50.8427 107.22 50.5715 108.018 50.3756C108.832 50.1797 109.676 50.0818 110.55 50.0818ZM111.024 56.9984C109.939 57.0285 109.186 57.2244 108.764 57.5861C108.342 57.9478 108.131 58.4224 108.131 59.0101C108.131 59.5225 108.282 59.8917 108.583 60.1177C108.885 60.3287 109.276 60.4341 109.759 60.4341C110.482 60.4341 111.092 60.2232 111.59 59.8012C112.087 59.3642 112.335 58.7539 112.335 57.9704V56.9532L111.024 56.9984ZM126.022 50.1044C126.188 50.1044 126.384 50.1119 126.61 50.127C126.836 50.142 127.017 50.1646 127.152 50.1948L126.904 53.3593C126.798 53.3291 126.64 53.3065 126.429 53.2914C126.233 53.2613 126.06 53.2462 125.909 53.2462C125.472 53.2462 125.05 53.3065 124.643 53.4271C124.237 53.5325 123.867 53.7058 123.536 53.9469C123.219 54.188 122.963 54.512 122.767 54.9189C122.586 55.3107 122.496 55.8004 122.496 56.3881V62.6719H119.128V50.3304H121.682L122.18 52.4099H122.338C122.579 51.988 122.88 51.6037 123.242 51.2571C123.604 50.9105 124.018 50.6318 124.485 50.4208C124.967 50.2098 125.48 50.1044 126.022 50.1044ZM132.861 62.8979C131.49 62.8979 130.367 62.363 129.493 61.2931C128.634 60.2081 128.205 58.6183 128.205 56.5237C128.205 54.4141 128.642 52.8168 129.516 51.7318C130.39 50.6468 131.535 50.1044 132.952 50.1044C133.539 50.1044 134.059 50.1872 134.511 50.353C134.963 50.5037 135.348 50.7147 135.664 50.9859C135.996 51.2571 136.274 51.566 136.5 51.9126H136.613C136.568 51.6715 136.516 51.3249 136.455 50.8729C136.395 50.4057 136.365 49.9311 136.365 49.4489V45.4933H139.733V62.6719H137.156L136.5 61.067H136.365C136.154 61.3985 135.883 61.7075 135.551 61.9938C135.235 62.265 134.858 62.4835 134.421 62.6493C133.984 62.815 133.464 62.8979 132.861 62.8979ZM134.037 60.2081C134.971 60.2081 135.626 59.9369 136.003 59.3944C136.38 58.8368 136.576 58.008 136.591 56.908V56.5463C136.591 55.3408 136.403 54.4216 136.026 53.7887C135.664 53.1558 134.986 52.8394 133.991 52.8394C133.253 52.8394 132.673 53.1634 132.251 53.8113C131.829 54.4442 131.618 55.3634 131.618 56.5689C131.618 57.7745 131.829 58.6861 132.251 59.304C132.673 59.9067 133.268 60.2081 134.037 60.2081ZM155.998 50.1044C157.384 50.1044 158.507 50.6468 159.366 51.7318C160.225 52.8017 160.654 54.3839 160.654 56.4785C160.654 57.8799 160.451 59.0629 160.044 60.0273C159.637 60.9766 159.079 61.6924 158.371 62.1746C157.663 62.6568 156.842 62.8979 155.907 62.8979C155.32 62.8979 154.807 62.8226 154.37 62.6719C153.948 62.5212 153.587 62.3253 153.285 62.0842C152.984 61.8431 152.72 61.5869 152.494 61.3157H152.313C152.374 61.602 152.419 61.9034 152.449 62.2198C152.479 62.5212 152.494 62.8226 152.494 63.1239V68.0967H149.126V50.3304H151.861L152.336 51.9352H152.494C152.72 51.6037 152.991 51.3023 153.308 51.0311C153.624 50.7448 154.001 50.5188 154.438 50.353C154.89 50.1872 155.41 50.1044 155.998 50.1044ZM154.913 52.7942C154.325 52.7942 153.858 52.9147 153.511 53.1558C153.165 53.3969 152.909 53.7661 152.743 54.2634C152.592 54.7456 152.509 55.3559 152.494 56.0943V56.4559C152.494 57.2546 152.57 57.9327 152.72 58.4902C152.871 59.0327 153.127 59.4471 153.489 59.7334C153.85 60.0197 154.34 60.1629 154.958 60.1629C155.47 60.1629 155.892 60.0197 156.224 59.7334C156.555 59.4471 156.804 59.0252 156.97 58.4676C157.135 57.9101 157.218 57.232 157.218 56.4333C157.218 55.2278 157.03 54.3237 156.653 53.7209C156.292 53.1031 155.711 52.7942 154.913 52.7942ZM166.798 62.6719H163.43V45.4933H166.798V62.6719ZM175.38 50.0818C177.038 50.0818 178.304 50.4434 179.178 51.1667C180.067 51.875 180.511 52.9675 180.511 54.4442V62.6719H178.16L177.505 60.9992H177.414C177.068 61.4362 176.706 61.7979 176.33 62.0842C175.968 62.3705 175.546 62.5739 175.064 62.6945C174.597 62.8301 174.016 62.8979 173.323 62.8979C172.6 62.8979 171.944 62.7623 171.357 62.491C170.784 62.2047 170.332 61.7753 170.001 61.2027C169.669 60.615 169.503 59.8766 169.503 58.9875C169.503 57.6765 169.963 56.7121 170.882 56.0943C171.801 55.4614 173.18 55.1148 175.019 55.0545L177.166 54.9867V54.4442C177.166 53.7963 176.993 53.3216 176.646 53.0202C176.314 52.7188 175.847 52.5681 175.245 52.5681C174.642 52.5681 174.054 52.6585 173.481 52.8394C172.909 53.0051 172.336 53.2161 171.764 53.4723L170.656 51.1893C171.319 50.8427 172.05 50.5715 172.849 50.3756C173.662 50.1797 174.506 50.0818 175.38 50.0818ZM175.855 56.9984C174.77 57.0285 174.016 57.2244 173.595 57.5861C173.173 57.9478 172.962 58.4224 172.962 59.0101C172.962 59.5225 173.112 59.8917 173.414 60.1177C173.715 60.3287 174.107 60.4341 174.589 60.4341C175.312 60.4341 175.923 60.2232 176.42 59.8012C176.917 59.3642 177.166 58.7539 177.166 57.9704V56.9532L175.855 56.9984ZM190.966 50.1044C192.292 50.1044 193.354 50.466 194.153 51.1893C194.951 51.8976 195.351 53.0428 195.351 54.625V62.6719H191.983V55.4614C191.983 54.5723 191.825 53.9093 191.508 53.4723C191.192 53.0202 190.687 52.7942 189.994 52.7942C188.969 52.7942 188.268 53.1483 187.892 53.8565C187.515 54.5497 187.326 55.5518 187.326 56.8628V62.6719H183.959V50.3304H186.535L186.987 51.9126H187.168C187.439 51.4907 187.771 51.1517 188.163 50.8955C188.555 50.6242 188.992 50.4283 189.474 50.3078C189.956 50.1722 190.453 50.1044 190.966 50.1044Z" fill="#0073E5"/>
<path d="M64.1136 176.176L65.8623 178.362C66.0315 178.579 66.1631 178.814 66.2572 179.067C66.3512 179.321 66.3982 179.589 66.3982 179.871C66.3982 180.153 66.3559 180.421 66.2713 180.675C66.1866 180.929 66.0644 181.159 65.9046 181.366C65.7448 181.573 65.552 181.752 65.3264 181.902C65.1007 182.053 64.8563 182.165 64.593 182.241L61.8994 182.988C61.9182 183.468 61.9417 183.952 61.97 184.441C61.9982 184.929 62.017 185.418 62.0264 185.907C62.0264 186.246 61.9653 186.561 61.843 186.852C61.7208 187.144 61.5469 187.397 61.3212 187.614C61.0956 187.83 60.837 188.004 60.5456 188.135C60.2541 188.267 59.9345 188.333 59.5866 188.333C59.2952 188.333 59.0084 188.281 58.7263 188.178L56.1174 187.191L54.5802 189.518C54.3545 189.865 54.0631 190.133 53.7058 190.321C53.3485 190.509 52.9584 190.608 52.5353 190.618C52.1216 190.618 51.7361 190.524 51.3789 190.335C51.0216 190.147 50.7255 189.875 50.4904 189.518L48.9532 187.191L46.3442 188.178C46.0622 188.281 45.7754 188.333 45.484 188.333C45.1455 188.333 44.8306 188.272 44.5391 188.15C44.2476 188.027 43.9891 187.853 43.7635 187.628C43.5378 187.402 43.3639 187.144 43.2417 186.852C43.1194 186.561 43.0536 186.246 43.0442 185.907C43.0442 185.418 43.0583 184.929 43.0865 184.441C43.1147 183.952 43.1429 183.468 43.1711 182.988L40.4775 182.241C40.2049 182.165 39.9604 182.053 39.7442 181.902C39.528 181.752 39.3399 181.573 39.1801 181.366C39.0203 181.159 38.8981 180.929 38.8134 180.675C38.7288 180.421 38.6818 180.153 38.6724 179.871C38.6724 179.599 38.7194 179.335 38.8134 179.082C38.9075 178.828 39.0391 178.588 39.2083 178.362L40.957 176.176L39.2083 173.991C38.851 173.549 38.6724 173.046 38.6724 172.482C38.6724 172.2 38.7147 171.932 38.7993 171.678C38.8839 171.424 39.0062 171.194 39.166 170.987C39.3258 170.78 39.5139 170.601 39.7301 170.451C39.9463 170.3 40.1955 170.188 40.4775 170.112L43.1711 169.365C43.1523 168.885 43.1288 168.401 43.1006 167.912C43.0724 167.423 43.0536 166.935 43.0442 166.446C43.0442 166.107 43.1053 165.792 43.2276 165.501C43.3498 165.209 43.5237 164.955 43.7494 164.739C43.975 164.523 44.2335 164.349 44.525 164.217C44.8165 164.086 45.1361 164.02 45.484 164.02C45.7754 164.02 46.0622 164.072 46.3442 164.175L48.9532 165.162L50.4904 162.835C50.7161 162.487 51.0075 162.22 51.3648 162.032C51.722 161.843 52.1122 161.745 52.5353 161.735C52.949 161.735 53.3344 161.829 53.6917 162.017C54.049 162.205 54.3451 162.478 54.5802 162.835L56.1174 165.162L58.7263 164.175C59.0084 164.072 59.2952 164.02 59.5866 164.02C59.9251 164.02 60.24 164.081 60.5315 164.203C60.8229 164.326 61.0815 164.499 61.3071 164.725C61.5328 164.951 61.7067 165.209 61.8289 165.501C61.9511 165.792 62.017 166.107 62.0264 166.446C62.0264 166.935 62.0123 167.423 61.9841 167.912C61.9559 168.401 61.9276 168.885 61.8994 169.365L64.593 170.112C64.8563 170.188 65.1007 170.3 65.3264 170.451C65.552 170.601 65.7401 170.78 65.8905 170.987C66.0409 171.194 66.1631 171.424 66.2572 171.678C66.3512 171.932 66.3982 172.2 66.3982 172.482C66.3982 173.046 66.2195 173.549 65.8623 173.991L64.1136 176.176ZM50.7302 181.38L58.7546 173.37L57.1469 171.762L50.7302 178.193L47.9237 175.373L46.316 176.98L50.7302 181.38Z" fill="#0073E5" fill-opacity="0.7"/>
<path d="M88.9213 183.991H80.9046V169.646H88.9213V171.233H82.7129V175.713H88.5596V177.28H82.7129V182.404H88.9213V183.991ZM95.9065 173.041C97.2192 173.041 98.1903 173.329 98.8199 173.905C99.4494 174.481 99.7642 175.399 99.7642 176.658V183.991H98.4783L98.1367 182.464H98.0564C97.7483 182.853 97.4268 183.181 97.0919 183.449C96.7705 183.703 96.3954 183.891 95.9668 184.011C95.5516 184.132 95.0426 184.192 94.4398 184.192C93.7969 184.192 93.2142 184.078 92.6918 183.851C92.1828 183.623 91.781 183.275 91.4863 182.806C91.1916 182.324 91.0443 181.721 91.0443 180.998C91.0443 179.926 91.4662 179.102 92.3101 178.526C93.1539 177.937 94.4532 177.615 96.2079 177.562L98.0363 177.502V176.859C98.0363 175.961 97.842 175.338 97.4536 174.99C97.0652 174.642 96.516 174.468 95.8061 174.468C95.2435 174.468 94.7077 174.555 94.1987 174.729C93.6897 174.89 93.2142 175.077 92.7722 175.291L92.2297 173.965C92.6985 173.711 93.2544 173.497 93.8973 173.322C94.5403 173.135 95.21 173.041 95.9065 173.041ZM96.4289 178.787C95.0894 178.841 94.1585 179.055 93.6361 179.43C93.1271 179.805 92.8726 180.334 92.8726 181.018C92.8726 181.62 93.0535 182.062 93.4151 182.344C93.7902 182.625 94.2657 182.766 94.8416 182.766C95.7525 182.766 96.5093 182.518 97.112 182.022C97.7148 181.513 98.0162 180.736 98.0162 179.692V178.727L96.4289 178.787ZM108.113 173.021C108.314 173.021 108.529 173.034 108.756 173.061C108.997 173.075 109.205 173.101 109.379 173.142L109.158 174.769C108.984 174.729 108.79 174.695 108.575 174.669C108.375 174.642 108.18 174.628 107.993 174.628C107.578 174.628 107.182 174.715 106.807 174.89C106.432 175.064 106.097 175.311 105.803 175.633C105.508 175.941 105.274 176.316 105.1 176.758C104.939 177.2 104.858 177.696 104.858 178.245V183.991H103.09V173.222H104.537L104.738 175.191H104.818C105.046 174.789 105.321 174.427 105.642 174.106C105.963 173.771 106.332 173.51 106.747 173.322C107.162 173.121 107.618 173.021 108.113 173.021ZM113.158 183.991H111.39V168.721H113.158V183.991ZM114.882 173.222H116.771L119.102 179.35C119.236 179.712 119.356 180.06 119.463 180.395C119.584 180.73 119.691 181.058 119.785 181.379C119.878 181.687 119.952 181.989 120.006 182.283H120.086C120.166 181.949 120.294 181.513 120.468 180.977C120.642 180.428 120.823 179.879 121.01 179.33L123.2 173.222H125.109L120.468 185.478C120.213 186.148 119.912 186.73 119.564 187.226C119.229 187.735 118.814 188.123 118.318 188.391C117.836 188.673 117.246 188.813 116.55 188.813C116.228 188.813 115.947 188.793 115.706 188.753C115.465 188.726 115.257 188.693 115.083 188.653V187.246C115.231 187.273 115.405 187.3 115.606 187.326C115.82 187.353 116.041 187.367 116.269 187.367C116.684 187.367 117.039 187.286 117.333 187.126C117.642 186.978 117.903 186.757 118.117 186.463C118.331 186.181 118.512 185.846 118.66 185.458L119.222 184.031L114.882 173.222ZM139.043 181.018C139.043 181.714 138.869 182.297 138.521 182.766C138.173 183.234 137.677 183.589 137.034 183.83C136.391 184.072 135.628 184.192 134.744 184.192C133.994 184.192 133.344 184.132 132.795 184.011C132.259 183.891 131.784 183.723 131.368 183.509V181.902C131.797 182.116 132.313 182.317 132.915 182.504C133.532 182.679 134.154 182.766 134.784 182.766C135.681 182.766 136.331 182.625 136.733 182.344C137.135 182.049 137.336 181.661 137.336 181.178C137.336 180.91 137.262 180.669 137.115 180.455C136.967 180.241 136.699 180.026 136.311 179.812C135.936 179.598 135.393 179.357 134.684 179.089C133.987 178.821 133.391 178.553 132.895 178.285C132.4 178.017 132.018 177.696 131.75 177.321C131.482 176.946 131.348 176.463 131.348 175.874C131.348 174.963 131.717 174.26 132.453 173.764C133.203 173.269 134.181 173.021 135.387 173.021C136.043 173.021 136.653 173.088 137.215 173.222C137.791 173.342 138.327 173.517 138.822 173.744L138.22 175.151C137.925 175.017 137.61 174.903 137.275 174.809C136.954 174.702 136.626 174.622 136.291 174.568C135.956 174.501 135.614 174.468 135.266 174.468C134.543 174.468 133.987 174.588 133.599 174.829C133.224 175.057 133.036 175.372 133.036 175.774C133.036 176.068 133.123 176.323 133.297 176.537C133.471 176.738 133.759 176.939 134.161 177.14C134.576 177.327 135.126 177.555 135.809 177.823C136.492 178.077 137.074 178.339 137.557 178.607C138.039 178.874 138.407 179.203 138.662 179.591C138.916 179.966 139.043 180.442 139.043 181.018ZM145.965 184.192C145.014 184.192 144.164 183.998 143.414 183.609C142.677 183.221 142.094 182.618 141.666 181.801C141.251 180.984 141.043 179.939 141.043 178.667C141.043 177.341 141.264 176.263 141.706 175.432C142.148 174.602 142.744 173.992 143.494 173.604C144.258 173.215 145.122 173.021 146.086 173.021C146.635 173.021 147.164 173.081 147.673 173.202C148.182 173.309 148.598 173.443 148.919 173.604L148.376 175.07C148.055 174.95 147.68 174.836 147.251 174.729C146.823 174.622 146.421 174.568 146.046 174.568C145.323 174.568 144.726 174.722 144.258 175.03C143.789 175.338 143.441 175.794 143.213 176.396C142.985 176.999 142.871 177.749 142.871 178.647C142.871 179.504 142.985 180.234 143.213 180.837C143.441 181.44 143.782 181.895 144.238 182.203C144.693 182.511 145.262 182.665 145.945 182.665C146.535 182.665 147.05 182.605 147.492 182.484C147.948 182.364 148.363 182.216 148.738 182.042V183.609C148.376 183.797 147.975 183.938 147.533 184.031C147.104 184.139 146.582 184.192 145.965 184.192ZM153.067 173.202C153.067 173.456 153.054 173.718 153.027 173.985C153.014 174.253 152.994 174.494 152.967 174.709H153.087C153.315 174.334 153.603 174.026 153.951 173.784C154.3 173.543 154.688 173.363 155.117 173.242C155.545 173.108 155.987 173.041 156.443 173.041C157.313 173.041 158.037 173.182 158.613 173.463C159.202 173.731 159.644 174.153 159.939 174.729C160.233 175.305 160.381 176.055 160.381 176.979V183.991H158.633V177.1C158.633 176.229 158.439 175.579 158.05 175.151C157.662 174.722 157.052 174.508 156.222 174.508C155.418 174.508 154.789 174.662 154.333 174.97C153.878 175.265 153.55 175.707 153.349 176.296C153.161 176.872 153.067 177.582 153.067 178.426V183.991H151.299V168.721H153.067V173.202ZM173.082 178.586C173.082 179.484 172.962 180.281 172.721 180.977C172.493 181.661 172.158 182.243 171.716 182.725C171.287 183.208 170.758 183.576 170.129 183.83C169.513 184.072 168.823 184.192 168.059 184.192C167.349 184.192 166.693 184.072 166.09 183.83C165.487 183.576 164.965 183.208 164.523 182.725C164.081 182.243 163.733 181.661 163.478 180.977C163.237 180.281 163.117 179.484 163.117 178.586C163.117 177.394 163.318 176.39 163.719 175.573C164.121 174.742 164.697 174.113 165.447 173.684C166.197 173.242 167.088 173.021 168.12 173.021C169.097 173.021 169.955 173.242 170.691 173.684C171.441 174.113 172.024 174.742 172.439 175.573C172.868 176.39 173.082 177.394 173.082 178.586ZM164.945 178.586C164.945 179.43 165.052 180.167 165.266 180.797C165.494 181.413 165.842 181.888 166.311 182.223C166.78 182.558 167.376 182.725 168.099 182.725C168.823 182.725 169.419 182.558 169.888 182.223C170.356 181.888 170.698 181.413 170.912 180.797C171.14 180.167 171.254 179.43 171.254 178.586C171.254 177.729 171.14 176.999 170.912 176.396C170.685 175.794 170.336 175.332 169.868 175.01C169.412 174.675 168.816 174.508 168.079 174.508C166.981 174.508 166.184 174.869 165.688 175.593C165.193 176.316 164.945 177.314 164.945 178.586ZM180.907 173.021C181.108 173.021 181.323 173.034 181.55 173.061C181.791 173.075 181.999 173.101 182.173 173.142L181.952 174.769C181.778 174.729 181.584 174.695 181.37 174.669C181.169 174.642 180.974 174.628 180.787 174.628C180.372 174.628 179.976 174.715 179.601 174.89C179.226 175.064 178.892 175.311 178.597 175.633C178.302 175.941 178.068 176.316 177.894 176.758C177.733 177.2 177.653 177.696 177.653 178.245V183.991H175.884V173.222H177.331L177.532 175.191H177.612C177.84 174.789 178.115 174.427 178.436 174.106C178.758 173.771 179.126 173.51 179.541 173.322C179.956 173.121 180.412 173.021 180.907 173.021ZM185.952 183.991H184.184V168.721H185.952V183.991ZM193.443 173.041C194.755 173.041 195.727 173.329 196.356 173.905C196.986 174.481 197.3 175.399 197.3 176.658V183.991H196.015L195.673 182.464H195.593C195.285 182.853 194.963 183.181 194.628 183.449C194.307 183.703 193.932 183.891 193.503 184.011C193.088 184.132 192.579 184.192 191.976 184.192C191.333 184.192 190.75 184.078 190.228 183.851C189.719 183.623 189.317 183.275 189.023 182.806C188.728 182.324 188.58 181.721 188.58 180.998C188.58 179.926 189.002 179.102 189.846 178.526C190.69 177.937 191.989 177.615 193.744 177.562L195.572 177.502V176.859C195.572 175.961 195.378 175.338 194.99 174.99C194.601 174.642 194.052 174.468 193.342 174.468C192.78 174.468 192.244 174.555 191.735 174.729C191.226 174.89 190.75 175.077 190.308 175.291L189.766 173.965C190.235 173.711 190.791 173.497 191.434 173.322C192.076 173.135 192.746 173.041 193.443 173.041ZM193.965 178.787C192.626 178.841 191.695 179.055 191.172 179.43C190.663 179.805 190.409 180.334 190.409 181.018C190.409 181.62 190.59 182.062 190.951 182.344C191.326 182.625 191.802 182.766 192.378 182.766C193.289 182.766 194.046 182.518 194.648 182.022C195.251 181.513 195.552 180.736 195.552 179.692V178.727L193.965 178.787ZM205.65 173.021C205.85 173.021 206.065 173.034 206.292 173.061C206.534 173.075 206.741 173.101 206.915 173.142L206.694 174.769C206.52 174.729 206.326 174.695 206.112 174.669C205.911 174.642 205.717 174.628 205.529 174.628C205.114 174.628 204.719 174.715 204.344 174.89C203.969 175.064 203.634 175.311 203.339 175.633C203.044 175.941 202.81 176.316 202.636 176.758C202.475 177.2 202.395 177.696 202.395 178.245V183.991H200.627V173.222H202.073L202.274 175.191H202.354C202.582 174.789 202.857 174.427 203.178 174.106C203.5 173.771 203.868 173.51 204.283 173.322C204.699 173.121 205.154 173.021 205.65 173.021ZM215.938 181.018C215.938 181.714 215.764 182.297 215.416 182.766C215.068 183.234 214.572 183.589 213.929 183.83C213.286 184.072 212.523 184.192 211.639 184.192C210.889 184.192 210.239 184.132 209.69 184.011C209.154 183.891 208.678 183.723 208.263 183.509V181.902C208.692 182.116 209.208 182.317 209.81 182.504C210.426 182.679 211.049 182.766 211.679 182.766C212.576 182.766 213.226 182.625 213.628 182.344C214.03 182.049 214.231 181.661 214.231 181.178C214.231 180.91 214.157 180.669 214.01 180.455C213.862 180.241 213.594 180.026 213.206 179.812C212.831 179.598 212.288 179.357 211.578 179.089C210.882 178.821 210.286 178.553 209.79 178.285C209.295 178.017 208.913 177.696 208.645 177.321C208.377 176.946 208.243 176.463 208.243 175.874C208.243 174.963 208.611 174.26 209.348 173.764C210.098 173.269 211.076 173.021 212.282 173.021C212.938 173.021 213.547 173.088 214.11 173.222C214.686 173.342 215.222 173.517 215.717 173.744L215.115 175.151C214.82 175.017 214.505 174.903 214.17 174.809C213.849 174.702 213.521 174.622 213.186 174.568C212.851 174.501 212.509 174.468 212.161 174.468C211.438 174.468 210.882 174.588 210.493 174.829C210.118 175.057 209.931 175.372 209.931 175.774C209.931 176.068 210.018 176.323 210.192 176.537C210.366 176.738 210.654 176.939 211.056 177.14C211.471 177.327 212.02 177.555 212.704 177.823C213.387 178.077 213.969 178.339 214.452 178.607C214.934 178.874 215.302 179.203 215.557 179.591C215.811 179.966 215.938 180.442 215.938 181.018ZM220.309 173.202C220.309 173.456 220.295 173.718 220.268 173.985C220.255 174.253 220.235 174.494 220.208 174.709H220.329C220.556 174.334 220.844 174.026 221.193 173.784C221.541 173.543 221.929 173.363 222.358 173.242C222.787 173.108 223.229 173.041 223.684 173.041C224.555 173.041 225.278 173.182 225.854 173.463C226.443 173.731 226.885 174.153 227.18 174.729C227.475 175.305 227.622 176.055 227.622 176.979V183.991H225.874V177.1C225.874 176.229 225.68 175.579 225.291 175.151C224.903 174.722 224.294 174.508 223.463 174.508C222.659 174.508 222.03 174.662 221.574 174.97C221.119 175.265 220.791 175.707 220.59 176.296C220.402 176.872 220.309 177.582 220.309 178.426V183.991H218.541V168.721H220.309V173.202ZM232.729 173.222V183.991H230.961V173.222H232.729ZM231.865 169.183C232.133 169.183 232.367 169.277 232.568 169.465C232.782 169.639 232.89 169.92 232.89 170.309C232.89 170.684 232.782 170.965 232.568 171.152C232.367 171.34 232.133 171.434 231.865 171.434C231.57 171.434 231.322 171.34 231.121 171.152C230.921 170.965 230.82 170.684 230.82 170.309C230.82 169.92 230.921 169.639 231.121 169.465C231.322 169.277 231.57 169.183 231.865 169.183ZM241.264 173.021C242.59 173.021 243.655 173.483 244.459 174.407C245.276 175.332 245.684 176.725 245.684 178.586C245.684 179.805 245.497 180.837 245.122 181.681C244.76 182.511 244.244 183.141 243.575 183.569C242.918 183.985 242.141 184.192 241.244 184.192C240.695 184.192 240.206 184.118 239.777 183.971C239.349 183.824 238.98 183.636 238.672 183.409C238.378 183.167 238.123 182.906 237.909 182.625H237.788C237.815 182.853 237.842 183.141 237.869 183.489C237.895 183.837 237.909 184.139 237.909 184.393V188.813H236.141V173.222H237.587L237.828 174.689H237.909C238.123 174.381 238.378 174.099 238.672 173.845C238.98 173.59 239.342 173.389 239.757 173.242C240.186 173.095 240.688 173.021 241.264 173.021ZM240.943 174.508C240.219 174.508 239.637 174.648 239.195 174.93C238.753 175.198 238.431 175.606 238.23 176.155C238.029 176.705 237.922 177.401 237.909 178.245V178.586C237.909 179.471 238.003 180.221 238.19 180.837C238.378 181.453 238.692 181.922 239.134 182.243C239.59 182.565 240.206 182.725 240.983 182.725C241.639 182.725 242.175 182.545 242.59 182.183C243.019 181.821 243.334 181.332 243.535 180.716C243.749 180.087 243.856 179.37 243.856 178.566C243.856 177.334 243.615 176.35 243.133 175.613C242.664 174.876 241.934 174.508 240.943 174.508ZM262.722 173.222V183.991H261.276L261.015 182.565H260.934C260.706 182.94 260.412 183.248 260.05 183.489C259.688 183.73 259.293 183.904 258.865 184.011C258.436 184.132 257.987 184.192 257.519 184.192C256.661 184.192 255.938 184.058 255.349 183.79C254.773 183.509 254.337 183.08 254.043 182.504C253.748 181.928 253.601 181.185 253.601 180.274V173.222H255.389V180.154C255.389 181.011 255.583 181.654 255.971 182.082C256.36 182.511 256.963 182.725 257.78 182.725C258.583 182.725 259.213 182.578 259.668 182.283C260.137 181.975 260.465 181.533 260.653 180.957C260.854 180.368 260.954 179.658 260.954 178.828V173.222H262.722ZM271.265 173.021C272.591 173.021 273.656 173.483 274.459 174.407C275.276 175.332 275.685 176.725 275.685 178.586C275.685 179.805 275.497 180.837 275.122 181.681C274.761 182.511 274.245 183.141 273.575 183.569C272.919 183.985 272.142 184.192 271.245 184.192C270.695 184.192 270.207 184.118 269.778 183.971C269.349 183.824 268.981 183.636 268.673 183.409C268.378 183.167 268.124 182.906 267.909 182.625H267.789C267.816 182.853 267.842 183.141 267.869 183.489C267.896 183.837 267.909 184.139 267.909 184.393V188.813H266.141V173.222H267.588L267.829 174.689H267.909C268.124 174.381 268.378 174.099 268.673 173.845C268.981 173.59 269.343 173.389 269.758 173.242C270.186 173.095 270.689 173.021 271.265 173.021ZM270.943 174.508C270.22 174.508 269.637 174.648 269.195 174.93C268.753 175.198 268.432 175.606 268.231 176.155C268.03 176.705 267.923 177.401 267.909 178.245V178.586C267.909 179.471 268.003 180.221 268.191 180.837C268.378 181.453 268.693 181.922 269.135 182.243C269.59 182.565 270.207 182.725 270.983 182.725C271.64 182.725 272.176 182.545 272.591 182.183C273.019 181.821 273.334 181.332 273.535 180.716C273.749 180.087 273.857 179.37 273.857 178.566C273.857 177.334 273.615 176.35 273.133 175.613C272.664 174.876 271.934 174.508 270.943 174.508ZM282.32 184.192C280.981 184.192 279.909 183.73 279.105 182.806C278.302 181.868 277.9 180.475 277.9 178.627C277.9 176.778 278.302 175.385 279.105 174.448C279.922 173.497 281.001 173.021 282.34 173.021C282.903 173.021 283.392 173.095 283.807 173.242C284.222 173.376 284.584 173.563 284.892 173.805C285.2 174.046 285.461 174.314 285.675 174.608H285.796C285.782 174.434 285.756 174.18 285.716 173.845C285.689 173.497 285.675 173.222 285.675 173.021V168.721H287.443V183.991H286.017L285.756 182.545H285.675C285.461 182.853 285.2 183.134 284.892 183.388C284.584 183.63 284.215 183.824 283.787 183.971C283.371 184.118 282.883 184.192 282.32 184.192ZM282.601 182.725C283.74 182.725 284.537 182.417 284.992 181.801C285.461 181.172 285.695 180.227 285.695 178.968V178.647C285.695 177.307 285.474 176.283 285.032 175.573C284.59 174.849 283.773 174.488 282.581 174.488C281.63 174.488 280.914 174.869 280.431 175.633C279.963 176.383 279.728 177.394 279.728 178.667C279.728 179.953 279.963 180.951 280.431 181.661C280.914 182.37 281.637 182.725 282.601 182.725ZM294.942 173.041C296.255 173.041 297.226 173.329 297.856 173.905C298.485 174.481 298.8 175.399 298.8 176.658V183.991H297.514L297.173 182.464H297.092C296.784 182.853 296.463 183.181 296.128 183.449C295.806 183.703 295.431 183.891 295.003 184.011C294.587 184.132 294.078 184.192 293.476 184.192C292.833 184.192 292.25 184.078 291.728 183.851C291.219 183.623 290.817 183.275 290.522 182.806C290.228 182.324 290.08 181.721 290.08 180.998C290.08 179.926 290.502 179.102 291.346 178.526C292.19 177.937 293.489 177.615 295.244 177.562L297.072 177.502V176.859C297.072 175.961 296.878 175.338 296.49 174.99C296.101 174.642 295.552 174.468 294.842 174.468C294.279 174.468 293.744 174.555 293.235 174.729C292.726 174.89 292.25 175.077 291.808 175.291L291.266 173.965C291.734 173.711 292.29 173.497 292.933 173.322C293.576 173.135 294.246 173.041 294.942 173.041ZM295.465 178.787C294.125 178.841 293.194 179.055 292.672 179.43C292.163 179.805 291.909 180.334 291.909 181.018C291.909 181.62 292.089 182.062 292.451 182.344C292.826 182.625 293.302 182.766 293.878 182.766C294.788 182.766 295.545 182.518 296.148 182.022C296.751 181.513 297.052 180.736 297.052 179.692V178.727L295.465 178.787ZM305.723 182.746C305.991 182.746 306.265 182.725 306.546 182.685C306.828 182.632 307.055 182.578 307.23 182.524V183.871C307.042 183.964 306.774 184.038 306.426 184.092C306.078 184.159 305.743 184.192 305.421 184.192C304.859 184.192 304.336 184.098 303.854 183.911C303.385 183.71 303.004 183.368 302.709 182.886C302.414 182.404 302.267 181.728 302.267 180.857V174.588H300.74V173.744L302.287 173.041L302.99 170.751H304.035V173.222H307.149V174.588H304.035V180.817C304.035 181.473 304.189 181.962 304.497 182.283C304.819 182.591 305.227 182.746 305.723 182.746ZM313.545 173.021C314.469 173.021 315.26 173.222 315.916 173.624C316.586 174.026 317.095 174.595 317.443 175.332C317.805 176.055 317.985 176.905 317.985 177.883V178.948H310.612C310.638 180.167 310.947 181.098 311.536 181.741C312.139 182.37 312.976 182.685 314.047 182.685C314.73 182.685 315.333 182.625 315.856 182.504C316.391 182.37 316.941 182.183 317.503 181.942V183.489C316.954 183.73 316.412 183.904 315.876 184.011C315.34 184.132 314.704 184.192 313.967 184.192C312.949 184.192 312.045 183.985 311.255 183.569C310.478 183.154 309.868 182.538 309.426 181.721C308.998 180.89 308.783 179.879 308.783 178.687C308.783 177.508 308.978 176.497 309.366 175.653C309.768 174.809 310.324 174.16 311.034 173.704C311.757 173.249 312.594 173.021 313.545 173.021ZM313.525 174.468C312.681 174.468 312.011 174.742 311.516 175.291C311.034 175.827 310.746 176.577 310.652 177.542H316.137C316.137 176.926 316.043 176.39 315.856 175.934C315.668 175.479 315.38 175.124 314.992 174.869C314.617 174.602 314.128 174.468 313.525 174.468ZM327.739 181.018C327.739 181.714 327.565 182.297 327.217 182.766C326.868 183.234 326.373 183.589 325.73 183.83C325.087 184.072 324.323 184.192 323.439 184.192C322.689 184.192 322.04 184.132 321.49 184.011C320.955 183.891 320.479 183.723 320.064 183.509V181.902C320.493 182.116 321.008 182.317 321.611 182.504C322.227 182.679 322.85 182.766 323.48 182.766C324.377 182.766 325.027 182.625 325.429 182.344C325.83 182.049 326.031 181.661 326.031 181.178C326.031 180.91 325.958 180.669 325.81 180.455C325.663 180.241 325.395 180.026 325.007 179.812C324.632 179.598 324.089 179.357 323.379 179.089C322.683 178.821 322.087 178.553 321.591 178.285C321.095 178.017 320.714 177.696 320.446 177.321C320.178 176.946 320.044 176.463 320.044 175.874C320.044 174.963 320.412 174.26 321.149 173.764C321.899 173.269 322.877 173.021 324.082 173.021C324.739 173.021 325.348 173.088 325.911 173.222C326.487 173.342 327.022 173.517 327.518 173.744L326.915 175.151C326.621 175.017 326.306 174.903 325.971 174.809C325.65 174.702 325.321 174.622 324.986 174.568C324.652 174.501 324.31 174.468 323.962 174.468C323.238 174.468 322.683 174.588 322.294 174.829C321.919 175.057 321.732 175.372 321.732 175.774C321.732 176.068 321.819 176.323 321.993 176.537C322.167 176.738 322.455 176.939 322.857 177.14C323.272 177.327 323.821 177.555 324.504 177.823C325.187 178.077 325.77 178.339 326.252 178.607C326.734 178.874 327.103 179.203 327.357 179.591C327.612 179.966 327.739 180.442 327.739 181.018Z" fill="black" fill-opacity="0.7"/>
<path d="M64.1136 217.617L65.8623 219.803C66.0315 220.019 66.1631 220.254 66.2572 220.508C66.3512 220.762 66.3982 221.03 66.3982 221.312C66.3982 221.594 66.3559 221.862 66.2713 222.116C66.1866 222.369 66.0644 222.6 65.9046 222.807C65.7448 223.013 65.552 223.192 65.3264 223.343C65.1007 223.493 64.8563 223.606 64.5931 223.681L61.8994 224.428C61.9183 224.908 61.9418 225.392 61.97 225.881C61.9982 226.37 62.017 226.859 62.0264 227.348C62.0264 227.686 61.9653 228.001 61.843 228.293C61.7208 228.584 61.5469 228.838 61.3212 229.054C61.0956 229.27 60.837 229.444 60.5456 229.576C60.2541 229.708 59.9345 229.773 59.5866 229.773C59.2952 229.773 59.0084 229.722 58.7264 229.618L56.1174 228.631L54.5802 230.958C54.3545 231.306 54.0631 231.574 53.7058 231.762C53.3486 231.95 52.9584 232.049 52.5353 232.058C52.1216 232.058 51.7362 231.964 51.3789 231.776C51.0216 231.588 50.7255 231.315 50.4904 230.958L48.9532 228.631L46.3442 229.618C46.0622 229.722 45.7754 229.773 45.484 229.773C45.1455 229.773 44.8306 229.712 44.5391 229.59C44.2477 229.468 43.9891 229.294 43.7635 229.068C43.5378 228.843 43.3639 228.584 43.2417 228.293C43.1194 228.001 43.0536 227.686 43.0442 227.348C43.0442 226.859 43.0583 226.37 43.0865 225.881C43.1147 225.392 43.143 224.908 43.1712 224.428L40.4776 223.681C40.2049 223.606 39.9605 223.493 39.7442 223.343C39.528 223.192 39.3399 223.013 39.1801 222.807C39.0203 222.6 38.8981 222.369 38.8134 222.116C38.7288 221.862 38.6818 221.594 38.6724 221.312C38.6724 221.039 38.7194 220.776 38.8134 220.522C38.9075 220.268 39.0391 220.028 39.2083 219.803L40.957 217.617L39.2083 215.431C38.851 214.989 38.6724 214.486 38.6724 213.922C38.6724 213.64 38.7147 213.372 38.7993 213.118C38.884 212.864 39.0062 212.634 39.166 212.427C39.3258 212.22 39.5139 212.042 39.7301 211.891C39.9464 211.741 40.1955 211.628 40.4776 211.553L43.1712 210.805C43.1524 210.326 43.1288 209.842 43.1006 209.353C43.0724 208.864 43.0536 208.375 43.0442 207.886C43.0442 207.548 43.1053 207.233 43.2276 206.941C43.3498 206.65 43.5237 206.396 43.7494 206.18C43.975 205.963 44.2336 205.789 44.525 205.658C44.8165 205.526 45.1361 205.46 45.484 205.46C45.7754 205.46 46.0622 205.512 46.3442 205.616L48.9532 206.603L50.4904 204.276C50.7161 203.928 51.0075 203.66 51.3648 203.472C51.722 203.284 52.1122 203.185 52.5353 203.176C52.949 203.176 53.3345 203.27 53.6917 203.458C54.049 203.646 54.3451 203.919 54.5802 204.276L56.1174 206.603L58.7264 205.616C59.0084 205.512 59.2952 205.46 59.5866 205.46C59.9251 205.46 60.24 205.522 60.5315 205.644C60.8229 205.766 61.0815 205.94 61.3071 206.166C61.5328 206.391 61.7067 206.65 61.8289 206.941C61.9512 207.233 62.017 207.548 62.0264 207.886C62.0264 208.375 62.0123 208.864 61.9841 209.353C61.9559 209.842 61.9277 210.326 61.8994 210.805L64.5931 211.553C64.8563 211.628 65.1007 211.741 65.3264 211.891C65.552 212.042 65.7401 212.22 65.8905 212.427C66.0409 212.634 66.1631 212.864 66.2572 213.118C66.3512 213.372 66.3982 213.64 66.3982 213.922C66.3982 214.486 66.2196 214.989 65.8623 215.431L64.1136 217.617ZM50.7302 222.821L58.7546 214.81L57.1469 213.203L50.7302 219.634L47.9237 216.813L46.316 218.421L50.7302 222.821Z" fill="#0073E5" fill-opacity="0.7"/>
<path d="M91.8145 220.368C91.8145 221.36 91.6136 222.257 91.2117 223.061C90.8099 223.851 90.1938 224.481 89.3633 224.949C88.5462 225.405 87.5014 225.633 86.2289 225.633C84.4475 225.633 83.0879 225.15 82.1503 224.186C81.226 223.208 80.7639 221.922 80.7639 220.328V211.086H82.5722V220.389C82.5722 221.554 82.8803 222.458 83.4964 223.101C84.126 223.744 85.0703 224.065 86.3294 224.065C87.2001 224.065 87.9033 223.911 88.4391 223.603C88.9882 223.282 89.3901 222.846 89.6446 222.297C89.8991 221.735 90.0263 221.092 90.0263 220.368V211.086H91.8145V220.368ZM100.483 214.461C101.809 214.461 102.874 214.924 103.678 215.848C104.495 216.772 104.903 218.165 104.903 220.027C104.903 221.246 104.716 222.277 104.341 223.121C103.979 223.952 103.463 224.581 102.794 225.01C102.137 225.425 101.36 225.633 100.463 225.633C99.9138 225.633 99.4249 225.559 98.9963 225.412C98.5677 225.264 98.1993 225.077 97.8912 224.849C97.5965 224.608 97.342 224.347 97.1277 224.065H97.0072C97.034 224.293 97.0608 224.581 97.0875 224.929C97.1143 225.278 97.1277 225.579 97.1277 225.833V230.254H95.3596V214.662H96.8063L97.0474 216.129H97.1277C97.342 215.821 97.5965 215.54 97.8912 215.285C98.1993 215.031 98.561 214.83 98.9762 214.682C99.4048 214.535 99.9071 214.461 100.483 214.461ZM100.162 215.948C99.4383 215.948 98.8556 216.089 98.4136 216.37C97.9716 216.638 97.6501 217.047 97.4492 217.596C97.2483 218.145 97.1411 218.841 97.1277 219.685V220.027C97.1277 220.911 97.2215 221.661 97.409 222.277C97.5965 222.893 97.9113 223.362 98.3533 223.684C98.8088 224.005 99.4249 224.166 100.202 224.166C100.858 224.166 101.394 223.985 101.809 223.623C102.238 223.262 102.553 222.773 102.753 222.157C102.968 221.527 103.075 220.81 103.075 220.007C103.075 218.775 102.834 217.79 102.352 217.053C101.883 216.317 101.153 215.948 100.162 215.948ZM111.538 225.633C110.199 225.633 109.127 225.17 108.324 224.246C107.52 223.309 107.118 221.916 107.118 220.067C107.118 218.219 107.52 216.826 108.324 215.888C109.141 214.937 110.219 214.461 111.558 214.461C112.121 214.461 112.61 214.535 113.025 214.682C113.44 214.816 113.802 215.004 114.11 215.245C114.418 215.486 114.679 215.754 114.894 216.049H115.014C115.001 215.875 114.974 215.62 114.934 215.285C114.907 214.937 114.894 214.662 114.894 214.461V210.162H116.662V225.432H115.235L114.974 223.985H114.894C114.679 224.293 114.418 224.574 114.11 224.829C113.802 225.07 113.434 225.264 113.005 225.412C112.59 225.559 112.101 225.633 111.538 225.633ZM111.82 224.166C112.958 224.166 113.755 223.858 114.211 223.242C114.679 222.612 114.914 221.668 114.914 220.409V220.087C114.914 218.748 114.693 217.723 114.251 217.013C113.809 216.29 112.992 215.928 111.8 215.928C110.849 215.928 110.132 216.31 109.65 217.073C109.181 217.823 108.947 218.835 108.947 220.107C108.947 221.393 109.181 222.391 109.65 223.101C110.132 223.811 110.855 224.166 111.82 224.166ZM124.161 214.482C125.474 214.482 126.445 214.77 127.074 215.345C127.704 215.921 128.018 216.839 128.018 218.098V225.432H126.733L126.391 223.905H126.311C126.003 224.293 125.681 224.621 125.346 224.889C125.025 225.144 124.65 225.331 124.221 225.452C123.806 225.572 123.297 225.633 122.694 225.633C122.051 225.633 121.469 225.519 120.946 225.291C120.437 225.063 120.035 224.715 119.741 224.246C119.446 223.764 119.299 223.161 119.299 222.438C119.299 221.366 119.721 220.543 120.564 219.967C121.408 219.377 122.708 219.056 124.462 219.002L126.291 218.942V218.299C126.291 217.402 126.096 216.779 125.708 216.43C125.319 216.082 124.77 215.908 124.06 215.908C123.498 215.908 122.962 215.995 122.453 216.169C121.944 216.33 121.469 216.518 121.026 216.732L120.484 215.406C120.953 215.151 121.509 214.937 122.152 214.763C122.795 214.575 123.464 214.482 124.161 214.482ZM124.683 220.228C123.344 220.281 122.413 220.496 121.89 220.871C121.381 221.246 121.127 221.775 121.127 222.458C121.127 223.061 121.308 223.503 121.669 223.784C122.044 224.065 122.52 224.206 123.096 224.206C124.007 224.206 124.764 223.958 125.366 223.463C125.969 222.954 126.27 222.177 126.27 221.132V220.168L124.683 220.228ZM134.941 224.186C135.209 224.186 135.484 224.166 135.765 224.126C136.046 224.072 136.274 224.019 136.448 223.965V225.311C136.26 225.405 135.993 225.479 135.644 225.532C135.296 225.599 134.961 225.633 134.64 225.633C134.077 225.633 133.555 225.539 133.073 225.351C132.604 225.15 132.222 224.809 131.927 224.327C131.633 223.844 131.485 223.168 131.485 222.297V216.029H129.958V215.185L131.505 214.482L132.209 212.191H133.253V214.662H136.368V216.029H133.253V222.257C133.253 222.913 133.407 223.402 133.715 223.724C134.037 224.032 134.445 224.186 134.941 224.186ZM142.763 214.461C143.688 214.461 144.478 214.662 145.134 215.064C145.804 215.466 146.313 216.035 146.661 216.772C147.023 217.495 147.204 218.346 147.204 219.324V220.389H139.83C139.857 221.607 140.165 222.538 140.754 223.181C141.357 223.811 142.194 224.126 143.266 224.126C143.949 224.126 144.552 224.065 145.074 223.945C145.61 223.811 146.159 223.623 146.722 223.382V224.929C146.172 225.17 145.63 225.345 145.094 225.452C144.558 225.572 143.922 225.633 143.185 225.633C142.167 225.633 141.263 225.425 140.473 225.01C139.696 224.594 139.087 223.978 138.645 223.161C138.216 222.331 138.002 221.319 138.002 220.127C138.002 218.949 138.196 217.937 138.584 217.093C138.986 216.25 139.542 215.6 140.252 215.145C140.975 214.689 141.812 214.461 142.763 214.461ZM142.743 215.908C141.9 215.908 141.23 216.183 140.734 216.732C140.252 217.268 139.964 218.018 139.87 218.982H145.355C145.355 218.366 145.262 217.83 145.074 217.375C144.887 216.919 144.599 216.564 144.21 216.31C143.835 216.042 143.346 215.908 142.743 215.908ZM156.957 222.458C156.957 223.155 156.783 223.737 156.435 224.206C156.087 224.675 155.591 225.03 154.948 225.271C154.305 225.512 153.542 225.633 152.658 225.633C151.908 225.633 151.258 225.572 150.709 225.452C150.173 225.331 149.698 225.164 149.282 224.949V223.342C149.711 223.556 150.227 223.757 150.829 223.945C151.446 224.119 152.068 224.206 152.698 224.206C153.595 224.206 154.245 224.065 154.647 223.784C155.049 223.489 155.25 223.101 155.25 222.619C155.25 222.351 155.176 222.11 155.029 221.895C154.881 221.681 154.613 221.467 154.225 221.253C153.85 221.038 153.307 220.797 152.598 220.529C151.901 220.261 151.305 219.993 150.809 219.726C150.314 219.458 149.932 219.136 149.664 218.761C149.396 218.386 149.262 217.904 149.262 217.314C149.262 216.404 149.631 215.7 150.367 215.205C151.117 214.709 152.095 214.461 153.301 214.461C153.957 214.461 154.567 214.528 155.129 214.662C155.705 214.783 156.241 214.957 156.736 215.185L156.134 216.591C155.839 216.457 155.524 216.343 155.189 216.25C154.868 216.142 154.54 216.062 154.205 216.009C153.87 215.942 153.528 215.908 153.18 215.908C152.457 215.908 151.901 216.029 151.513 216.27C151.138 216.497 150.95 216.812 150.95 217.214C150.95 217.509 151.037 217.763 151.211 217.978C151.385 218.178 151.673 218.379 152.075 218.58C152.49 218.768 153.04 218.996 153.723 219.263C154.406 219.518 154.988 219.779 155.471 220.047C155.953 220.315 156.321 220.643 156.576 221.032C156.83 221.407 156.957 221.882 156.957 222.458ZM174.142 220.027C174.142 220.924 174.021 221.721 173.78 222.418C173.552 223.101 173.218 223.684 172.776 224.166C172.347 224.648 171.818 225.016 171.188 225.271C170.572 225.512 169.882 225.633 169.119 225.633C168.409 225.633 167.753 225.512 167.15 225.271C166.547 225.016 166.025 224.648 165.583 224.166C165.141 223.684 164.792 223.101 164.538 222.418C164.297 221.721 164.176 220.924 164.176 220.027C164.176 218.835 164.377 217.83 164.779 217.013C165.181 216.183 165.757 215.553 166.507 215.124C167.257 214.682 168.148 214.461 169.179 214.461C170.157 214.461 171.014 214.682 171.751 215.124C172.501 215.553 173.084 216.183 173.499 217.013C173.927 217.83 174.142 218.835 174.142 220.027ZM166.005 220.027C166.005 220.871 166.112 221.607 166.326 222.237C166.554 222.853 166.902 223.329 167.371 223.664C167.84 223.998 168.436 224.166 169.159 224.166C169.882 224.166 170.478 223.998 170.947 223.664C171.416 223.329 171.758 222.853 171.972 222.237C172.2 221.607 172.313 220.871 172.313 220.027C172.313 219.17 172.2 218.44 171.972 217.837C171.744 217.234 171.396 216.772 170.927 216.451C170.472 216.116 169.876 215.948 169.139 215.948C168.041 215.948 167.244 216.31 166.748 217.033C166.252 217.757 166.005 218.754 166.005 220.027ZM182.128 214.461C183.414 214.461 184.385 214.776 185.041 215.406C185.697 216.022 186.026 217.027 186.026 218.42V225.432H184.278V218.54C184.278 217.669 184.083 217.02 183.695 216.591C183.306 216.163 182.697 215.948 181.866 215.948C180.674 215.948 179.851 216.283 179.395 216.953C178.94 217.623 178.712 218.587 178.712 219.846V225.432H176.944V214.662H178.37L178.632 216.129H178.732C178.973 215.754 179.268 215.446 179.616 215.205C179.978 214.95 180.373 214.763 180.802 214.642C181.23 214.522 181.672 214.461 182.128 214.461ZM198.18 224.186C198.448 224.186 198.722 224.166 199.004 224.126C199.285 224.072 199.513 224.019 199.687 223.965V225.311C199.499 225.405 199.231 225.479 198.883 225.532C198.535 225.599 198.2 225.633 197.878 225.633C197.316 225.633 196.793 225.539 196.311 225.351C195.842 225.15 195.461 224.809 195.166 224.327C194.871 223.844 194.724 223.168 194.724 222.297V216.029H193.197V215.185L194.744 214.482L195.447 212.191H196.492V214.662H199.606V216.029H196.492V222.257C196.492 222.913 196.646 223.402 196.954 223.724C197.276 224.032 197.684 224.186 198.18 224.186ZM211.206 220.027C211.206 220.924 211.085 221.721 210.844 222.418C210.617 223.101 210.282 223.684 209.84 224.166C209.411 224.648 208.882 225.016 208.252 225.271C207.636 225.512 206.946 225.633 206.183 225.633C205.473 225.633 204.817 225.512 204.214 225.271C203.611 225.016 203.089 224.648 202.647 224.166C202.205 223.684 201.856 223.101 201.602 222.418C201.361 221.721 201.24 220.924 201.24 220.027C201.24 218.835 201.441 217.83 201.843 217.013C202.245 216.183 202.821 215.553 203.571 215.124C204.321 214.682 205.212 214.461 206.243 214.461C207.221 214.461 208.078 214.682 208.815 215.124C209.565 215.553 210.148 216.183 210.563 217.013C210.992 217.83 211.206 218.835 211.206 220.027ZM203.069 220.027C203.069 220.871 203.176 221.607 203.39 222.237C203.618 222.853 203.966 223.329 204.435 223.664C204.904 223.998 205.5 224.166 206.223 224.166C206.946 224.166 207.542 223.998 208.011 223.664C208.48 223.329 208.822 222.853 209.036 222.237C209.264 221.607 209.378 220.871 209.378 220.027C209.378 219.17 209.264 218.44 209.036 217.837C208.808 217.234 208.46 216.772 207.991 216.451C207.536 216.116 206.94 215.948 206.203 215.948C205.105 215.948 204.308 216.31 203.812 217.033C203.316 217.757 203.069 218.754 203.069 220.027ZM219.132 214.461C220.458 214.461 221.522 214.924 222.326 215.848C223.143 216.772 223.552 218.165 223.552 220.027C223.552 221.246 223.364 222.277 222.989 223.121C222.628 223.952 222.112 224.581 221.442 225.01C220.786 225.425 220.009 225.633 219.111 225.633C218.562 225.633 218.073 225.559 217.645 225.412C217.216 225.264 216.848 225.077 216.54 224.849C216.245 224.608 215.991 224.347 215.776 224.065H215.656C215.682 224.293 215.709 224.581 215.736 224.929C215.763 225.278 215.776 225.579 215.776 225.833V230.254H214.008V214.662H215.455L215.696 216.129H215.776C215.991 215.821 216.245 215.54 216.54 215.285C216.848 215.031 217.209 214.83 217.625 214.682C218.053 214.535 218.556 214.461 219.132 214.461ZM218.81 215.948C218.087 215.948 217.504 216.089 217.062 216.37C216.62 216.638 216.299 217.047 216.098 217.596C215.897 218.145 215.79 218.841 215.776 219.685V220.027C215.776 220.911 215.87 221.661 216.057 222.277C216.245 222.893 216.56 223.362 217.002 223.684C217.457 224.005 218.073 224.166 218.85 224.166C219.507 224.166 220.042 223.985 220.458 223.623C220.886 223.262 221.201 222.773 221.402 222.157C221.616 221.527 221.723 220.81 221.723 220.007C221.723 218.775 221.482 217.79 221 217.053C220.531 216.317 219.801 215.948 218.81 215.948ZM235.908 225.633C234.957 225.633 234.107 225.438 233.357 225.05C232.62 224.661 232.037 224.059 231.609 223.242C231.193 222.425 230.986 221.38 230.986 220.107C230.986 218.781 231.207 217.703 231.649 216.872C232.091 216.042 232.687 215.433 233.437 215.044C234.201 214.656 235.064 214.461 236.029 214.461C236.578 214.461 237.107 214.522 237.616 214.642C238.125 214.749 238.54 214.883 238.862 215.044L238.319 216.511C237.998 216.39 237.623 216.276 237.194 216.169C236.766 216.062 236.364 216.009 235.989 216.009C235.265 216.009 234.669 216.163 234.201 216.471C233.732 216.779 233.383 217.234 233.156 217.837C232.928 218.44 232.814 219.19 232.814 220.087C232.814 220.944 232.928 221.674 233.156 222.277C233.383 222.88 233.725 223.335 234.18 223.643C234.636 223.952 235.205 224.106 235.888 224.106C236.478 224.106 236.993 224.045 237.435 223.925C237.891 223.804 238.306 223.657 238.681 223.483V225.05C238.319 225.237 237.918 225.378 237.476 225.472C237.047 225.579 236.524 225.633 235.908 225.633ZM243.01 225.432H241.242V210.162H243.01V225.432ZM250.501 214.482C251.813 214.482 252.785 214.77 253.414 215.345C254.044 215.921 254.358 216.839 254.358 218.098V225.432H253.073L252.731 223.905H252.651C252.343 224.293 252.021 224.621 251.686 224.889C251.365 225.144 250.99 225.331 250.561 225.452C250.146 225.572 249.637 225.633 249.034 225.633C248.391 225.633 247.808 225.519 247.286 225.291C246.777 225.063 246.375 224.715 246.081 224.246C245.786 223.764 245.639 223.161 245.639 222.438C245.639 221.366 246.06 220.543 246.904 219.967C247.748 219.377 249.047 219.056 250.802 219.002L252.631 218.942V218.299C252.631 217.402 252.436 216.779 252.048 216.43C251.659 216.082 251.11 215.908 250.4 215.908C249.838 215.908 249.302 215.995 248.793 216.169C248.284 216.33 247.808 216.518 247.366 216.732L246.824 215.406C247.293 215.151 247.849 214.937 248.492 214.763C249.135 214.575 249.804 214.482 250.501 214.482ZM251.023 220.228C249.684 220.281 248.753 220.496 248.23 220.871C247.721 221.246 247.467 221.775 247.467 222.458C247.467 223.061 247.648 223.503 248.009 223.784C248.384 224.065 248.86 224.206 249.436 224.206C250.347 224.206 251.104 223.958 251.706 223.463C252.309 222.954 252.61 222.177 252.61 221.132V220.168L251.023 220.228ZM264.697 222.458C264.697 223.155 264.523 223.737 264.174 224.206C263.826 224.675 263.33 225.03 262.687 225.271C262.045 225.512 261.281 225.633 260.397 225.633C259.647 225.633 258.997 225.572 258.448 225.452C257.912 225.331 257.437 225.164 257.022 224.949V223.342C257.45 223.556 257.966 223.757 258.569 223.945C259.185 224.119 259.808 224.206 260.437 224.206C261.335 224.206 261.984 224.065 262.386 223.784C262.788 223.489 262.989 223.101 262.989 222.619C262.989 222.351 262.915 222.11 262.768 221.895C262.621 221.681 262.353 221.467 261.964 221.253C261.589 221.038 261.047 220.797 260.337 220.529C259.64 220.261 259.044 219.993 258.549 219.726C258.053 219.458 257.671 219.136 257.403 218.761C257.135 218.386 257.001 217.904 257.001 217.314C257.001 216.404 257.37 215.7 258.107 215.205C258.857 214.709 259.834 214.461 261.04 214.461C261.696 214.461 262.306 214.528 262.868 214.662C263.444 214.783 263.98 214.957 264.476 215.185L263.873 216.591C263.578 216.457 263.263 216.343 262.929 216.25C262.607 216.142 262.279 216.062 261.944 216.009C261.609 215.942 261.268 215.908 260.919 215.908C260.196 215.908 259.64 216.029 259.252 216.27C258.877 216.497 258.689 216.812 258.689 217.214C258.689 217.509 258.776 217.763 258.95 217.978C259.125 218.178 259.412 218.379 259.814 218.58C260.23 218.768 260.779 218.996 261.462 219.263C262.145 219.518 262.728 219.779 263.21 220.047C263.692 220.315 264.06 220.643 264.315 221.032C264.569 221.407 264.697 221.882 264.697 222.458ZM274.311 222.458C274.311 223.155 274.137 223.737 273.789 224.206C273.44 224.675 272.945 225.03 272.302 225.271C271.659 225.512 270.895 225.633 270.011 225.633C269.261 225.633 268.612 225.572 268.062 225.452C267.527 225.331 267.051 225.164 266.636 224.949V223.342C267.064 223.556 267.58 223.757 268.183 223.945C268.799 224.119 269.422 224.206 270.051 224.206C270.949 224.206 271.599 224.065 272 223.784C272.402 223.489 272.603 223.101 272.603 222.619C272.603 222.351 272.529 222.11 272.382 221.895C272.235 221.681 271.967 221.467 271.578 221.253C271.203 221.038 270.661 220.797 269.951 220.529C269.254 220.261 268.658 219.993 268.163 219.726C267.667 219.458 267.285 219.136 267.018 218.761C266.75 218.386 266.616 217.904 266.616 217.314C266.616 216.404 266.984 215.7 267.721 215.205C268.471 214.709 269.449 214.461 270.654 214.461C271.311 214.461 271.92 214.528 272.483 214.662C273.059 214.783 273.594 214.957 274.09 215.185L273.487 216.591C273.193 216.457 272.878 216.343 272.543 216.25C272.221 216.142 271.893 216.062 271.558 216.009C271.224 215.942 270.882 215.908 270.534 215.908C269.81 215.908 269.254 216.029 268.866 216.27C268.491 216.497 268.303 216.812 268.303 217.214C268.303 217.509 268.391 217.763 268.565 217.978C268.739 218.178 269.027 218.379 269.429 218.58C269.844 218.768 270.393 218.996 271.076 219.263C271.759 219.518 272.342 219.779 272.824 220.047C273.306 220.315 273.675 220.643 273.929 221.032C274.184 221.407 274.311 221.882 274.311 222.458ZM283.9 214.662V225.432H282.132V214.662H283.9ZM283.037 210.624C283.304 210.624 283.539 210.718 283.74 210.905C283.954 211.079 284.061 211.361 284.061 211.749C284.061 212.124 283.954 212.405 283.74 212.593C283.539 212.78 283.304 212.874 283.037 212.874C282.742 212.874 282.494 212.78 282.293 212.593C282.092 212.405 281.992 212.124 281.992 211.749C281.992 211.361 282.092 211.079 282.293 210.905C282.494 210.718 282.742 210.624 283.037 210.624ZM292.496 214.461C293.782 214.461 294.753 214.776 295.409 215.406C296.066 216.022 296.394 217.027 296.394 218.42V225.432H294.646V218.54C294.646 217.669 294.452 217.02 294.063 216.591C293.675 216.163 293.065 215.948 292.235 215.948C291.043 215.948 290.219 216.283 289.764 216.953C289.308 217.623 289.08 218.587 289.08 219.846V225.432H287.312V214.662H288.739L289 216.129H289.101C289.342 215.754 289.636 215.446 289.985 215.205C290.346 214.95 290.741 214.763 291.17 214.642C291.599 214.522 292.041 214.461 292.496 214.461ZM306.745 222.458C306.745 223.155 306.57 223.737 306.222 224.206C305.874 224.675 305.378 225.03 304.735 225.271C304.092 225.512 303.329 225.633 302.445 225.633C301.695 225.633 301.045 225.572 300.496 225.452C299.96 225.331 299.485 225.164 299.069 224.949V223.342C299.498 223.556 300.014 223.757 300.617 223.945C301.233 224.119 301.856 224.206 302.485 224.206C303.383 224.206 304.032 224.065 304.434 223.784C304.836 223.489 305.037 223.101 305.037 222.619C305.037 222.351 304.963 222.11 304.816 221.895C304.668 221.681 304.401 221.467 304.012 221.253C303.637 221.038 303.095 220.797 302.385 220.529C301.688 220.261 301.092 219.993 300.596 219.726C300.101 219.458 299.719 219.136 299.451 218.761C299.183 218.386 299.049 217.904 299.049 217.314C299.049 216.404 299.418 215.7 300.154 215.205C300.905 214.709 301.882 214.461 303.088 214.461C303.744 214.461 304.354 214.528 304.916 214.662C305.492 214.783 306.028 214.957 306.524 215.185L305.921 216.591C305.626 216.457 305.311 216.343 304.976 216.25C304.655 216.142 304.327 216.062 303.992 216.009C303.657 215.942 303.316 215.908 302.967 215.908C302.244 215.908 301.688 216.029 301.3 216.27C300.925 216.497 300.737 216.812 300.737 217.214C300.737 217.509 300.824 217.763 300.998 217.978C301.172 218.178 301.46 218.379 301.862 218.58C302.277 218.768 302.827 218.996 303.51 219.263C304.193 219.518 304.776 219.779 305.258 220.047C305.74 220.315 306.108 220.643 306.363 221.032C306.617 221.407 306.745 221.882 306.745 222.458ZM312.943 224.186C313.211 224.186 313.486 224.166 313.767 224.126C314.048 224.072 314.276 224.019 314.45 223.965V225.311C314.263 225.405 313.995 225.479 313.646 225.532C313.298 225.599 312.963 225.633 312.642 225.633C312.079 225.633 311.557 225.539 311.075 225.351C310.606 225.15 310.224 224.809 309.929 224.327C309.635 223.844 309.487 223.168 309.487 222.297V216.029H307.96V215.185L309.508 214.482L310.211 212.191H311.256V214.662H314.37V216.029H311.256V222.257C311.256 222.913 311.41 223.402 311.718 223.724C312.039 224.032 312.448 224.186 312.943 224.186ZM318.375 214.662V225.432H316.607V214.662H318.375ZM317.511 210.624C317.779 210.624 318.013 210.718 318.214 210.905C318.428 211.079 318.535 211.361 318.535 211.749C318.535 212.124 318.428 212.405 318.214 212.593C318.013 212.78 317.779 212.874 317.511 212.874C317.216 212.874 316.968 212.78 316.767 212.593C316.566 212.405 316.466 212.124 316.466 211.749C316.466 211.361 316.566 211.079 316.767 210.905C316.968 210.718 317.216 210.624 317.511 210.624ZM325.383 224.186C325.651 224.186 325.925 224.166 326.207 224.126C326.488 224.072 326.716 224.019 326.89 223.965V225.311C326.702 225.405 326.434 225.479 326.086 225.532C325.738 225.599 325.403 225.633 325.082 225.633C324.519 225.633 323.997 225.539 323.514 225.351C323.046 225.15 322.664 224.809 322.369 224.327C322.075 223.844 321.927 223.168 321.927 222.297V216.029H320.4V215.185L321.947 214.482L322.65 212.191H323.695V214.662H326.81V216.029H323.695V222.257C323.695 222.913 323.849 223.402 324.157 223.724C324.479 224.032 324.887 224.186 325.383 224.186ZM338.048 214.662V225.432H336.601L336.34 224.005H336.259C336.032 224.38 335.737 224.688 335.375 224.929C335.014 225.17 334.618 225.345 334.19 225.452C333.761 225.572 333.313 225.633 332.844 225.633C331.986 225.633 331.263 225.499 330.674 225.231C330.098 224.949 329.662 224.521 329.368 223.945C329.073 223.369 328.926 222.625 328.926 221.715V214.662H330.714V221.594C330.714 222.451 330.908 223.094 331.297 223.523C331.685 223.952 332.288 224.166 333.105 224.166C333.909 224.166 334.538 224.019 334.994 223.724C335.462 223.416 335.791 222.974 335.978 222.398C336.179 221.808 336.279 221.098 336.279 220.268V214.662H338.048ZM345.063 224.186C345.331 224.186 345.605 224.166 345.887 224.126C346.168 224.072 346.396 224.019 346.57 223.965V225.311C346.382 225.405 346.114 225.479 345.766 225.532C345.418 225.599 345.083 225.633 344.762 225.633C344.199 225.633 343.677 225.539 343.194 225.351C342.726 225.15 342.344 224.809 342.049 224.327C341.754 223.844 341.607 223.168 341.607 222.297V216.029H340.08V215.185L341.627 214.482L342.33 212.191H343.375V214.662H346.489V216.029H343.375V222.257C343.375 222.913 343.529 223.402 343.837 223.724C344.159 224.032 344.567 224.186 345.063 224.186ZM358.089 220.027C358.089 220.924 357.969 221.721 357.727 222.418C357.5 223.101 357.165 223.684 356.723 224.166C356.294 224.648 355.765 225.016 355.136 225.271C354.519 225.512 353.83 225.633 353.066 225.633C352.356 225.633 351.7 225.512 351.097 225.271C350.494 225.016 349.972 224.648 349.53 224.166C349.088 223.684 348.74 223.101 348.485 222.418C348.244 221.721 348.123 220.924 348.123 220.027C348.123 218.835 348.324 217.83 348.726 217.013C349.128 216.183 349.704 215.553 350.454 215.124C351.204 214.682 352.095 214.461 353.126 214.461C354.104 214.461 354.961 214.682 355.698 215.124C356.448 215.553 357.031 216.183 357.446 217.013C357.875 217.83 358.089 218.835 358.089 220.027ZM349.952 220.027C349.952 220.871 350.059 221.607 350.273 222.237C350.501 222.853 350.849 223.329 351.318 223.664C351.787 223.998 352.383 224.166 353.106 224.166C353.83 224.166 354.426 223.998 354.894 223.664C355.363 223.329 355.705 222.853 355.919 222.237C356.147 221.607 356.261 220.871 356.261 220.027C356.261 219.17 356.147 218.44 355.919 217.837C355.691 217.234 355.343 216.772 354.874 216.451C354.419 216.116 353.823 215.948 353.086 215.948C351.988 215.948 351.191 216.31 350.695 217.033C350.2 217.757 349.952 218.754 349.952 220.027ZM366.075 214.461C367.361 214.461 368.332 214.776 368.988 215.406C369.645 216.022 369.973 217.027 369.973 218.42V225.432H368.225V218.54C368.225 217.669 368.031 217.02 367.642 216.591C367.254 216.163 366.644 215.948 365.814 215.948C364.622 215.948 363.798 216.283 363.343 216.953C362.887 217.623 362.659 218.587 362.659 219.846V225.432H360.891V214.662H362.318L362.579 216.129H362.679C362.921 215.754 363.215 215.446 363.564 215.205C363.925 214.95 364.32 214.763 364.749 214.642C365.178 214.522 365.62 214.461 366.075 214.461ZM380.323 222.458C380.323 223.155 380.149 223.737 379.801 224.206C379.453 224.675 378.957 225.03 378.314 225.271C377.671 225.512 376.908 225.633 376.024 225.633C375.274 225.633 374.624 225.572 374.075 225.452C373.539 225.331 373.064 225.164 372.648 224.949V223.342C373.077 223.556 373.593 223.757 374.195 223.945C374.812 224.119 375.434 224.206 376.064 224.206C376.961 224.206 377.611 224.065 378.013 223.784C378.415 223.489 378.616 223.101 378.616 222.619C378.616 222.351 378.542 222.11 378.395 221.895C378.247 221.681 377.979 221.467 377.591 221.253C377.216 221.038 376.673 220.797 375.964 220.529C375.267 220.261 374.671 219.993 374.175 219.726C373.68 219.458 373.298 219.136 373.03 218.761C372.762 218.386 372.628 217.904 372.628 217.314C372.628 216.404 372.997 215.7 373.733 215.205C374.483 214.709 375.461 214.461 376.667 214.461C377.323 214.461 377.933 214.528 378.495 214.662C379.071 214.783 379.607 214.957 380.102 215.185L379.5 216.591C379.205 216.457 378.89 216.343 378.555 216.25C378.234 216.142 377.906 216.062 377.571 216.009C377.236 215.942 376.894 215.908 376.546 215.908C375.823 215.908 375.267 216.029 374.879 216.27C374.504 216.497 374.316 216.812 374.316 217.214C374.316 217.509 374.403 217.763 374.577 217.978C374.751 218.178 375.039 218.379 375.441 218.58C375.856 218.768 376.406 218.996 377.089 219.263C377.772 219.518 378.354 219.779 378.837 220.047C379.319 220.315 379.687 220.643 379.942 221.032C380.196 221.407 380.323 221.882 380.323 222.458Z" fill="black" fill-opacity="0.7"/>
<path d="M152.123 494.593C151.325 494.593 150.609 494.736 149.976 495.022C149.343 495.293 148.801 495.7 148.348 496.243C147.911 496.785 147.572 497.441 147.331 498.209C147.105 498.978 146.992 499.844 146.992 500.809C146.992 502.074 147.181 503.174 147.557 504.109C147.934 505.028 148.499 505.736 149.253 506.233C150.006 506.731 150.955 506.979 152.101 506.979C152.794 506.979 153.457 506.919 154.09 506.799C154.738 506.663 155.393 506.49 156.056 506.279V508.381C155.423 508.622 154.775 508.795 154.112 508.901C153.449 509.021 152.681 509.082 151.807 509.082C150.164 509.082 148.793 508.742 147.693 508.064C146.608 507.386 145.794 506.422 145.252 505.171C144.709 503.92 144.438 502.459 144.438 500.786C144.438 499.565 144.604 498.45 144.935 497.441C145.282 496.416 145.779 495.535 146.427 494.796C147.075 494.058 147.874 493.493 148.823 493.101C149.788 492.694 150.895 492.491 152.146 492.491C152.96 492.491 153.758 492.581 154.542 492.762C155.325 492.928 156.034 493.169 156.667 493.485L155.762 495.519C155.235 495.278 154.662 495.067 154.045 494.887C153.442 494.691 152.801 494.593 152.123 494.593ZM161.658 496.265C161.658 496.642 161.643 497.019 161.612 497.396C161.582 497.772 161.552 498.081 161.522 498.322H161.68C161.936 497.9 162.253 497.554 162.63 497.283C163.021 497.011 163.451 496.808 163.918 496.672C164.4 496.537 164.89 496.469 165.387 496.469C166.352 496.469 167.158 496.627 167.806 496.943C168.469 497.245 168.966 497.727 169.298 498.39C169.644 499.038 169.818 499.882 169.818 500.922V508.855H167.444V501.261C167.444 500.311 167.241 499.603 166.834 499.136C166.442 498.654 165.809 498.413 164.935 498.413C164.106 498.413 163.451 498.578 162.969 498.91C162.502 499.241 162.162 499.731 161.952 500.379C161.756 501.012 161.658 501.796 161.658 502.73V508.855H159.262V491.677H161.658V496.265ZM184.236 502.753C184.236 503.762 184.1 504.659 183.829 505.442C183.558 506.226 183.174 506.889 182.676 507.431C182.179 507.974 181.576 508.388 180.868 508.675C180.16 508.946 179.361 509.082 178.472 509.082C177.658 509.082 176.905 508.946 176.212 508.675C175.518 508.388 174.916 507.974 174.403 507.431C173.906 506.889 173.514 506.226 173.228 505.442C172.942 504.659 172.799 503.755 172.799 502.73C172.799 501.389 173.025 500.251 173.477 499.317C173.944 498.383 174.607 497.674 175.466 497.192C176.34 496.695 177.364 496.446 178.54 496.446C179.655 496.446 180.634 496.695 181.478 497.192C182.337 497.674 183.008 498.383 183.49 499.317C183.987 500.251 184.236 501.396 184.236 502.753ZM175.262 502.753C175.262 503.657 175.375 504.44 175.601 505.103C175.827 505.751 176.182 506.249 176.664 506.595C177.146 506.942 177.764 507.115 178.517 507.115C179.271 507.115 179.888 506.942 180.371 506.595C180.853 506.249 181.207 505.751 181.433 505.103C181.659 504.44 181.772 503.657 181.772 502.753C181.772 501.818 181.652 501.035 181.41 500.402C181.184 499.769 180.83 499.287 180.348 498.955C179.881 498.609 179.263 498.435 178.495 498.435C177.364 498.435 176.543 498.812 176.031 499.565C175.518 500.319 175.262 501.381 175.262 502.753ZM198.01 502.753C198.01 503.762 197.874 504.659 197.603 505.442C197.332 506.226 196.947 506.889 196.45 507.431C195.953 507.974 195.35 508.388 194.642 508.675C193.934 508.946 193.135 509.082 192.246 509.082C191.432 509.082 190.679 508.946 189.986 508.675C189.292 508.388 188.69 507.974 188.177 507.431C187.68 506.889 187.288 506.226 187.002 505.442C186.716 504.659 186.573 503.755 186.573 502.73C186.573 501.389 186.799 500.251 187.251 499.317C187.718 498.383 188.381 497.674 189.24 497.192C190.114 496.695 191.138 496.446 192.314 496.446C193.429 496.446 194.408 496.695 195.252 497.192C196.111 497.674 196.782 498.383 197.264 499.317C197.761 500.251 198.01 501.396 198.01 502.753ZM189.036 502.753C189.036 503.657 189.149 504.44 189.375 505.103C189.601 505.751 189.955 506.249 190.438 506.595C190.92 506.942 191.538 507.115 192.291 507.115C193.045 507.115 193.662 506.942 194.145 506.595C194.627 506.249 194.981 505.751 195.207 505.103C195.433 504.44 195.546 503.657 195.546 502.753C195.546 501.818 195.426 501.035 195.184 500.402C194.958 499.769 194.604 499.287 194.122 498.955C193.655 498.609 193.037 498.435 192.269 498.435C191.138 498.435 190.317 498.812 189.805 499.565C189.292 500.319 189.036 501.381 189.036 502.753ZM209.139 505.42C209.139 506.218 208.943 506.889 208.552 507.431C208.16 507.974 207.595 508.388 206.856 508.675C206.118 508.946 205.229 509.082 204.189 509.082C203.33 509.082 202.592 509.014 201.974 508.878C201.371 508.758 200.814 508.577 200.301 508.336V506.233C200.844 506.49 201.469 506.723 202.177 506.934C202.886 507.13 203.579 507.228 204.257 507.228C205.161 507.228 205.809 507.085 206.201 506.799C206.608 506.512 206.811 506.128 206.811 505.646C206.811 505.375 206.736 505.133 206.585 504.922C206.434 504.696 206.148 504.47 205.726 504.244C205.319 504.003 204.716 503.732 203.918 503.431C203.149 503.114 202.494 502.805 201.951 502.504C201.409 502.187 200.994 501.818 200.708 501.396C200.422 500.959 200.279 500.402 200.279 499.724C200.279 498.669 200.701 497.863 201.544 497.305C202.403 496.732 203.534 496.446 204.935 496.446C205.673 496.446 206.367 496.522 207.015 496.672C207.678 496.808 208.318 497.019 208.936 497.305L208.145 499.136C207.798 498.97 207.436 498.835 207.06 498.729C206.698 498.609 206.329 498.511 205.952 498.435C205.59 498.36 205.214 498.322 204.822 498.322C204.099 498.322 203.549 498.435 203.172 498.661C202.795 498.887 202.607 499.204 202.607 499.611C202.607 499.897 202.69 500.146 202.855 500.357C203.036 500.568 203.345 500.779 203.782 500.989C204.219 501.2 204.814 501.457 205.568 501.758C206.321 502.044 206.962 502.338 207.489 502.64C208.032 502.941 208.439 503.31 208.71 503.747C208.996 504.184 209.139 504.742 209.139 505.42ZM216.788 496.446C217.858 496.446 218.777 496.672 219.545 497.124C220.314 497.561 220.902 498.194 221.308 499.023C221.73 499.852 221.941 500.831 221.941 501.961V503.272H213.759C213.789 504.523 214.113 505.48 214.731 506.143C215.364 506.806 216.245 507.138 217.375 507.138C218.159 507.138 218.852 507.07 219.455 506.934C220.073 506.783 220.706 506.565 221.354 506.279V508.268C220.751 508.539 220.133 508.742 219.5 508.878C218.882 509.014 218.144 509.082 217.285 509.082C216.11 509.082 215.07 508.848 214.166 508.381C213.262 507.914 212.553 507.22 212.041 506.301C211.544 505.367 211.295 504.222 211.295 502.866C211.295 501.494 211.521 500.334 211.973 499.385C212.44 498.435 213.081 497.712 213.894 497.215C214.723 496.702 215.688 496.446 216.788 496.446ZM216.788 498.3C215.929 498.3 215.236 498.578 214.708 499.136C214.196 499.694 213.894 500.485 213.804 501.509H219.545C219.545 500.876 219.447 500.319 219.251 499.837C219.056 499.354 218.754 498.978 218.347 498.707C217.94 498.435 217.421 498.3 216.788 498.3ZM235.594 492.717C237.704 492.717 239.241 493.146 240.206 494.005C241.17 494.849 241.652 496.032 241.652 497.554C241.652 498.232 241.539 498.88 241.313 499.498C241.102 500.115 240.748 500.673 240.251 501.17C239.753 501.653 239.09 502.037 238.262 502.323C237.448 502.594 236.446 502.73 235.255 502.73H233.515V508.855H231.074V492.717H235.594ZM235.414 494.774H233.515V500.673H234.984C235.903 500.673 236.672 500.575 237.29 500.379C237.908 500.168 238.367 499.844 238.669 499.407C238.985 498.955 239.143 498.367 239.143 497.644C239.143 496.68 238.842 495.964 238.239 495.497C237.651 495.015 236.71 494.774 235.414 494.774ZM247.039 508.855H244.643V491.677H247.039V508.855ZM255.525 496.446C257.062 496.446 258.208 496.785 258.961 497.463C259.715 498.126 260.091 499.174 260.091 500.605V508.855H258.396L257.921 507.16H257.831C257.484 507.597 257.123 507.959 256.746 508.245C256.384 508.531 255.962 508.742 255.48 508.878C255.013 509.014 254.44 509.082 253.762 509.082C253.039 509.082 252.384 508.953 251.796 508.697C251.223 508.426 250.771 508.019 250.44 507.477C250.108 506.919 249.942 506.226 249.942 505.397C249.942 504.161 250.409 503.22 251.344 502.572C252.293 501.924 253.732 501.57 255.661 501.509L257.741 501.442V500.763C257.741 499.859 257.537 499.226 257.13 498.865C256.723 498.503 256.151 498.322 255.412 498.322C254.779 498.322 254.177 498.413 253.604 498.594C253.031 498.774 252.489 498.993 251.977 499.249L251.208 497.509C251.781 497.207 252.436 496.959 253.175 496.763C253.928 496.552 254.712 496.446 255.525 496.446ZM256.09 503.046C254.704 503.107 253.74 503.34 253.197 503.747C252.67 504.139 252.406 504.696 252.406 505.42C252.406 506.053 252.594 506.512 252.971 506.799C253.363 507.085 253.853 507.228 254.44 507.228C255.39 507.228 256.173 506.964 256.791 506.437C257.409 505.909 257.718 505.118 257.718 504.064V503.001L256.09 503.046ZM269.951 496.446C271.368 496.446 272.453 496.8 273.206 497.509C273.96 498.217 274.336 499.354 274.336 500.922V508.855H271.963V501.261C271.963 500.311 271.76 499.603 271.353 499.136C270.961 498.654 270.328 498.413 269.454 498.413C268.218 498.413 267.359 498.782 266.877 499.52C266.41 500.259 266.177 501.321 266.177 502.707V508.855H263.781V496.672H265.679L266.018 498.3H266.154C266.425 497.878 266.757 497.531 267.149 497.26C267.54 496.989 267.977 496.785 268.46 496.65C268.942 496.514 269.439 496.446 269.951 496.446Z" fill="#0073E5"/>
<rect x="38.0445" y="465.392" width="344.075" height="69.9282" rx="10.6739" stroke="#0073E5" stroke-width="1.25575"/>
<path d="M374 71C382.285 71 389 64.2845 389 56C389 47.7155 382.285 41 374 41C365.715 41 359 47.7155 359 56C359 64.2845 365.715 71 374 71Z" stroke="black" stroke-opacity="0.5"/>
<rect x="0.5" y="0.5" width="419.164" height="566.086" rx="20.592" stroke="black" stroke-opacity="0.3"/>
</svg>
